<svg width="34" height="15" viewBox="0 0 34 15" fill="none" xmlns="http://www.w3.org/2000/svg"><path d="M3.166 1.2H13.42v.722c-.775.006-1.28.12-1.514.342-.215.188-.322.602-.322 1.24v6.055c0 .71.186 1.145.557 1.308.24.104.78.195 1.62.274l.304 3.242h-.704C13.205 12.794 12.434 12 11.047 12H3.84c-.632 0-1.188.234-1.67.703-.443.436-.684.996-.723 1.68H.744l.303-3.34h.937c2.032-2.26 3.047-4.775 3.047-7.549 0-.67-.127-1.097-.38-1.28-.255-.188-.75-.286-1.485-.292v-.723zm.04 9.843h5.683c.56 0 .927-.11 1.103-.332.156-.195.235-.58.235-1.152V3.64c0-.612-.088-1.013-.264-1.202-.176-.188-.534-.283-1.074-.283H7.404c-.566 0-.947.117-1.142.352-.17.195-.254.573-.254 1.133-.02 1.738-.423 3.414-1.211 5.029a11.556 11.556 0 01-1.592 2.373zM28.02.799c1.744 0 3.105.683 4.082 2.05.735 1.03 1.103 2.289 1.103 3.78 0 1.517-.361 2.78-1.084 3.789C31.171 11.74 29.797 12.4 28 12.4c-1.543 0-2.787-.504-3.73-1.513-.977-1.048-1.465-2.468-1.465-4.258 0-1.68.455-3.05 1.367-4.111.976-1.146 2.259-1.72 3.848-1.72zm-.04.957c-.885 0-1.643.325-2.275.976-.866.88-1.299 2.162-1.299 3.848 0 1.36.362 2.516 1.084 3.467.703.93 1.543 1.396 2.52 1.396.892 0 1.683-.406 2.373-1.22.814-.97 1.22-2.188 1.22-3.653 0-1.354-.296-2.467-.888-3.34-.67-.983-1.582-1.474-2.735-1.474z" fill="#fff"/></svg>