<svg width="480" height="857" viewBox="0 0 480 857" fill="none" xmlns="http://www.w3.org/2000/svg"><path fill="#000" d="M.5.5h479v856H.5z"/><path stroke="#fff" d="M.5.5h479v856H.5z"/><path d="M219.492 563.533h12.305c11.23 0 19.824-5.176 25.781-15.527 5.078-8.789 7.617-20.068 7.617-33.838 0-9.57-1.562-17.627-4.687-24.17-5.371-11.23-14.16-16.846-26.367-16.846-13.379 0-22.217 4.834-26.514 14.502 6.348 2.149 9.521 6.739 9.521 13.77 0 2.734-.683 5.176-2.05 7.324-2.637 4.102-6.592 6.152-11.866 6.152-9.765 0-14.648-5.664-14.648-16.992 0-9.765 3.76-18.408 11.279-25.928 9.18-9.179 20.703-13.769 34.571-13.769 16.113 0 29.052 5.859 38.818 17.578 8.594 10.254 12.891 23.193 12.891 38.818 0 30.762-12.989 49.463-38.965 56.104v1.318c15.136 3.321 26.465 10.742 33.984 22.266C287.9 604.451 291.27 617 291.27 631.941c0 14.942-2.93 27.881-8.79 38.819-9.668 17.969-25.195 26.953-46.582 26.953-12.793 0-23.73-3.174-32.812-9.522-11.621-8.105-17.432-18.798-17.432-32.08 0-5.566 1.465-9.863 4.395-12.89 2.832-2.93 6.396-4.395 10.693-4.395 2.539 0 4.932.733 7.178 2.197 4.59 3.028 6.885 7.422 6.885 13.184 0 7.324-3.028 12.402-9.082 15.234 5.371 8.887 14.892 13.33 28.564 13.33 12.012 0 21.143-5.615 27.393-16.845 5.078-8.985 7.617-20.362 7.617-34.131 0-16.504-3.76-29.541-11.279-39.111-6.641-8.594-15.381-12.891-26.221-12.891h-12.305v-16.26zM97.51 152.179h20.98v1.192c-1.332.011-2.186.21-2.562.596-.312.333-.468.999-.468 1.998v10.2c0 1.053.178 1.735.532 2.046.408.366 1.241.564 2.498.597V170h-8.347v-1.192c1.354-.022 2.208-.237 2.562-.645.322-.354.483-1.02.483-1.998v-10.393c0-1.343-.671-2.014-2.014-2.014h-6.348c-1.343 0-2.014.671-2.014 2.014v10.393c0 1.053.193 1.756.58 2.111.365.322 1.187.499 2.465.532V170H97.51v-1.192c1.332-.033 2.186-.247 2.562-.645.312-.333.468-.999.468-1.998v-10.2c0-1.085-.194-1.783-.58-2.094-.42-.333-1.236-.5-2.45-.5v-1.192zm36.932 0h16.484v1.192c-1.322 0-2.17.204-2.546.612-.322.333-.484.999-.484 1.998v10.184c0 1.042.178 1.724.532 2.046.387.366 1.219.564 2.498.597V170h-8.363v-1.192c1.354-.033 2.218-.247 2.594-.645.333-.354.5-1.02.5-1.998v-9.958c0-.999-.167-1.66-.5-1.982-.311-.311-1.015-.467-2.111-.467h-1.675c-.913 0-1.537.182-1.87.548-.29.322-.44.956-.451 1.901-.021 4.372-.456 7.896-1.305 10.57-.816 2.589-2.428 3.884-4.834 3.884-1.01 0-1.901-.258-2.675-.774-1.246-.827-1.869-1.955-1.869-3.384 0-.451.113-.848.339-1.192.376-.569.907-.854 1.595-.854.29 0 .564.07.822.21.666.375.999.966.999 1.772 0 .924-.462 1.515-1.386 1.772.376.538 1.101.806 2.175.806 1.074 0 1.88-.387 2.417-1.16.441-.645.833-1.783 1.176-3.416.559-2.675.838-5.479.838-8.411 0-1.117-.193-1.832-.58-2.143-.397-.333-1.171-.505-2.32-.516v-1.192zm35.916-6.478c.28 0 .548.059.806.177.731.344 1.096.924 1.096 1.741 0 .526-.188.977-.564 1.353a1.866 1.866 0 01-1.37.564c-.322 0-.623-.08-.902-.242-.666-.365-.999-.929-.999-1.691 0-.559.209-1.026.628-1.402.355-.333.79-.5 1.305-.5zm7.316 0c.279 0 .548.059.805.177.731.355 1.096.935 1.096 1.741 0 .526-.188.977-.564 1.353a1.863 1.863 0 01-1.369.564 1.77 1.77 0 01-.903-.242c-.666-.365-.999-.929-.999-1.691 0-.559.21-1.026.629-1.402.354-.333.789-.5 1.305-.5zm-9.781 15.211v.258c0 1.729.344 3.223 1.031 4.479 1.15 2.106 2.917 3.159 5.302 3.159 2.642 0 4.844-1.354 6.606-4.061l1.047 1.047c-1.869 3.245-4.49 4.867-7.863 4.867-2.965 0-5.258-1.112-6.88-3.336-1.214-1.665-1.821-3.722-1.821-6.171 0-2.525.677-4.673 2.03-6.446 1.644-2.126 3.808-3.19 6.494-3.19 1.88 0 3.518.532 4.914 1.595 1.569 1.182 2.589 2.799 3.062 4.85.172.742.258 1.504.258 2.288v.661h-14.18zm11.408-1.579c-.086-1.826-.489-3.212-1.208-4.157-1.064-1.407-2.471-2.111-4.222-2.111-1.643 0-3.045.704-4.205 2.111-.924 1.117-1.494 2.503-1.708 4.157h11.343zm17.209-7.154h8.347v1.192c-1.343.011-2.197.215-2.562.612-.322.333-.483.994-.483 1.982v3.771h10.376v-3.771c0-1.085-.193-1.783-.58-2.094-.419-.333-1.24-.5-2.465-.5v-1.192h8.347v1.192c-1.332.011-2.186.215-2.562.612-.312.333-.468.994-.468 1.982v10.2c0 1.053.178 1.735.532 2.046.408.366 1.241.564 2.498.597V170h-8.347v-1.192c1.354-.022 2.208-.237 2.562-.645.322-.354.483-1.02.483-1.998v-4.85h-10.376v4.85c0 1.053.193 1.756.58 2.111.376.322 1.197.499 2.465.532V170h-8.347v-1.192c1.268-.033 2.1-.231 2.498-.597.354-.311.532-.993.532-2.046v-10.2c0-1.085-.194-1.783-.581-2.094-.418-.323-1.235-.489-2.449-.5v-1.192zm43.522-.661c2.879 0 5.124 1.128 6.736 3.384 1.213 1.697 1.82 3.776 1.82 6.236 0 2.503-.596 4.587-1.788 6.252-1.569 2.18-3.835 3.271-6.8 3.271-2.546 0-4.598-.833-6.155-2.498-1.612-1.729-2.417-4.071-2.417-7.025 0-2.772.752-5.033 2.256-6.784 1.611-1.891 3.727-2.836 6.348-2.836zm-.064 1.579c-1.461 0-2.713.537-3.755 1.611-1.428 1.451-2.143 3.567-2.143 6.349 0 2.245.597 4.152 1.789 5.72 1.16 1.536 2.546 2.305 4.157 2.305 1.472 0 2.777-.672 3.916-2.015 1.342-1.6 2.014-3.609 2.014-6.026 0-2.234-.489-4.071-1.467-5.511-1.106-1.622-2.61-2.433-4.511-2.433zm22.22-.918h8.411v1.192c-1.353.011-2.218.215-2.594.612-.344.355-.516 1.021-.516 1.998v2.176c0 2.653 1.644 3.98 4.931 3.98 1.74 0 3.454-.414 5.14-1.241v-4.915c0-1.042-.188-1.729-.564-2.062-.408-.365-1.257-.548-2.546-.548v-1.192h8.395v1.192c-1.364.011-2.229.215-2.594.612-.322.333-.483.999-.483 1.998v10.184c0 1.053.193 1.756.58 2.111.376.333 1.208.51 2.497.532V170h-8.395v-1.192c1.364-.033 2.235-.247 2.611-.645.333-.354.499-1.02.499-1.998v-3.529a12.239 12.239 0 01-5.607 1.322c-2.288 0-3.964-.457-5.028-1.37-1.117-.945-1.675-2.422-1.675-4.431v-2.176c0-1.095-.194-1.799-.581-2.11-.419-.333-1.246-.5-2.481-.5v-1.192zm33.322 0h8.347v1.192c-1.343.011-2.197.215-2.562.612-.322.333-.483.994-.483 1.982v3.771h10.376v-3.771c0-1.085-.193-1.783-.58-2.094-.419-.333-1.24-.5-2.465-.5v-1.192h8.347v1.192c-1.332.011-2.186.215-2.562.612-.312.333-.468.994-.468 1.982v10.2c0 1.053.178 1.735.532 2.046.408.366 1.241.564 2.498.597V170h-8.347v-1.192c1.354-.022 2.208-.237 2.562-.645.322-.354.483-1.02.483-1.998v-4.85h-10.376v4.85c0 1.053.193 1.756.58 2.111.376.322 1.197.499 2.465.532V170h-8.347v-1.192c1.268-.033 2.1-.231 2.498-.597.354-.311.532-.993.532-2.046v-10.2c0-1.085-.194-1.783-.581-2.094-.418-.323-1.235-.489-2.449-.5v-1.192zm47.824 6.236v-.5c0-1.568-.343-2.718-1.031-3.448-.354-.376-.854-.693-1.498-.951a6.4 6.4 0 00-2.369-.451c-1.311 0-2.39.209-3.239.628-.429.204-.709.435-.838.693.613.237.919.768.919 1.595 0 .398-.108.747-.322 1.048-.333.462-.811.693-1.435.693a1.59 1.59 0 01-1.24-.564c-.355-.408-.532-.929-.532-1.563 0-1.042.612-1.955 1.837-2.74 1.375-.891 3.024-1.337 4.947-1.337 1.901 0 3.491.414 4.769 1.241 1.536.999 2.304 2.949 2.304 5.849v7.428c0 1.526.344 2.288 1.032 2.288.612 0 1.181-.553 1.708-1.659l.95 1.224c-.762 1.805-1.804 2.707-3.126 2.707-1.729 0-2.664-1.155-2.803-3.464-1.343 2.309-3.663 3.464-6.961 3.464-1.88 0-3.352-.671-4.415-2.014-.731-.935-1.096-2.046-1.096-3.335 0-2.052 1.026-3.658 3.078-4.818 1.987-1.139 4.646-1.789 7.976-1.95l1.385-.064zm0 1.659l-1.224.065c-2.815.15-4.979.644-6.494 1.482-1.45.795-2.175 1.961-2.175 3.497 0 .999.268 1.794.806 2.384.623.699 1.552 1.048 2.787 1.048 1.214 0 2.38-.29 3.497-.87 1.181-.613 2.009-1.375 2.481-2.288.215-.43.322-.854.322-1.273v-4.045zM362.268 170v-1.192c.698 0 1.375-.215 2.03-.645.462-.301.945-.934 1.45-1.901 1.268-2.439 2.804-4.066 4.608-4.883v-.161c-2.073-.118-3.604-.483-4.592-1.095-1.181-.731-1.772-1.821-1.772-3.271 0-1.601.757-2.799 2.272-3.594 1.396-.719 3.265-1.079 5.607-1.079h9.958v1.192c-1.353.011-2.218.215-2.594.612-.29.301-.435.962-.435 1.982v10.2c0 1.074.182 1.778.548 2.111.365.333 1.192.51 2.481.532V170h-8.379v-1.192c1.354-.033 2.218-.247 2.594-.645.344-.354.516-1.02.516-1.998v-4.689h-3.271c-3.298 1.3-5.532 4.141-6.703 8.524h-4.318zm14.292-10.039v-3.818c0-.978-.145-1.628-.435-1.95-.29-.333-.881-.5-1.772-.5h-2.482c-3.513 0-5.269 1.048-5.269 3.142 0 2.084 1.864 3.126 5.591 3.126h4.367zM87.375 206.932v-1.193c1.375-.021 2.245-.225 2.61-.612.333-.355.5-1.021.5-1.998v-1.869c-.913.591-1.94.886-3.078.886-1.955 0-3.545-.913-4.77-2.739-1.127-1.665-1.691-3.765-1.691-6.301 0-2.417.655-4.458 1.966-6.123 1.289-1.643 2.814-2.465 4.576-2.465.838 0 1.837.387 2.997 1.16v-4.221c0-.989-.177-1.606-.532-1.853-.354-.258-1.155-.425-2.4-.5v-1.192c2.04-.011 3.764-.231 5.172-.661v8.427c1.052-.773 2.035-1.16 2.948-1.16 1.698 0 3.175.763 4.431 2.288 1.397 1.687 2.095 3.798 2.095 6.333 0 2.417-.526 4.447-1.579 6.09-1.225 1.945-2.857 2.917-4.898 2.917-1.16 0-2.16-.295-2.997-.886v1.869c0 1.053.193 1.756.58 2.111.354.311 1.17.478 2.449.499v1.193h-8.379zm3.11-19.449c-.86-.967-1.816-1.45-2.868-1.45-1 0-1.87.531-2.61 1.595-.946 1.353-1.419 3.185-1.419 5.495 0 2.073.317 3.749.951 5.027.773 1.547 1.885 2.32 3.335 2.32 1.032 0 1.902-.376 2.61-1.128v-11.859zm2.24 11.859c.666.752 1.509 1.128 2.53 1.128 1.428 0 2.535-.741 3.319-2.223.677-1.289 1.015-3.008 1.015-5.157 0-2.17-.44-3.931-1.321-5.285-.763-1.181-1.655-1.772-2.675-1.772-1.107 0-2.063.483-2.868 1.45v11.859zm31.807-14.824c2.879 0 5.124 1.128 6.736 3.384 1.213 1.697 1.82 3.776 1.82 6.236 0 2.503-.596 4.587-1.788 6.252-1.569 2.18-3.835 3.271-6.8 3.271-2.546 0-4.598-.833-6.155-2.498-1.612-1.729-2.417-4.071-2.417-7.025 0-2.772.752-5.033 2.256-6.784 1.611-1.891 3.727-2.836 6.348-2.836zm-.064 1.579c-1.461 0-2.713.537-3.755 1.611-1.428 1.451-2.143 3.567-2.143 6.349 0 2.245.597 4.152 1.789 5.72 1.16 1.536 2.546 2.305 4.157 2.305 1.472 0 2.777-.672 3.916-2.015 1.342-1.6 2.014-3.609 2.014-6.026 0-2.234-.489-4.071-1.467-5.511-1.106-1.622-2.61-2.433-4.511-2.433zm25.12-.918h15.824l.499 6.107h-1.224c-.097-1.515-.548-2.659-1.354-3.432-.741-.731-1.939-1.096-3.593-1.096h-1.08v12.407c0 1.064.194 1.767.58 2.111.387.322 1.214.499 2.482.532V203h-8.444v-1.192c1.354-.033 2.219-.247 2.595-.645.322-.333.483-.999.483-1.998v-12.407h-1.096c-1.643 0-2.841.365-3.593 1.096-.806.784-1.257 1.928-1.354 3.432h-1.224l.499-6.107zm40.944-.661c2.879 0 5.124 1.128 6.736 3.384 1.213 1.697 1.82 3.776 1.82 6.236 0 2.503-.596 4.587-1.788 6.252-1.569 2.18-3.835 3.271-6.8 3.271-2.546 0-4.598-.833-6.155-2.498-1.612-1.729-2.417-4.071-2.417-7.025 0-2.772.752-5.033 2.256-6.784 1.611-1.891 3.727-2.836 6.348-2.836zm-.064 1.579c-1.461 0-2.713.537-3.755 1.611-1.428 1.451-2.143 3.567-2.143 6.349 0 2.245.597 4.152 1.789 5.72 1.16 1.536 2.546 2.305 4.157 2.305 1.472 0 2.777-.672 3.916-2.015 1.342-1.6 2.014-3.609 2.014-6.026 0-2.234-.489-4.071-1.467-5.511-1.106-1.622-2.61-2.433-4.511-2.433zm24.621-.918h15.501l.66 6.509h-1.224c-.387-1.708-.978-2.964-1.773-3.77-.762-.773-1.831-1.16-3.206-1.16H223c-1.074 0-1.767.156-2.078.467-.322.322-.484.983-.484 1.982v9.958c0 1.053.205 1.756.613 2.111.387.322 1.203.499 2.449.532V203h-8.411v-1.192c1.353-.033 2.218-.247 2.594-.645.344-.354.516-1.02.516-1.998v-10.022c0-1.075-.21-1.8-.629-2.176-.429-.386-1.257-.585-2.481-.596v-1.192zm31.276 21.753v-1.193c1.364-.021 2.229-.225 2.594-.612.344-.355.516-1.021.516-1.998v-14.421c0-.914-.199-1.515-.597-1.805-.376-.279-1.16-.457-2.352-.532v-1.192c2.191-.033 3.937-.253 5.237-.661v3.078c.462-.849 1.144-1.542 2.046-2.079a6.984 6.984 0 013.642-.999c2.406 0 4.366.827 5.881 2.482 1.429 1.546 2.143 3.571 2.143 6.074 0 3.03-.779 5.312-2.336 6.848-1.397 1.397-3.363 2.095-5.898 2.095-1.514 0-2.83-.392-3.948-1.176a5.672 5.672 0 01-1.53-1.66v3.948c0 1.031.198 1.713.596 2.046.408.344 1.353.532 2.836.564v1.193h-8.83zm10.667-20.77c-1.354 0-2.568.612-3.642 1.837-1.106 1.246-1.66 2.911-1.66 4.995 0 1.869.231 3.324.693 4.366.87 2.009 2.46 3.014 4.77 3.014 2.159 0 3.733-.951 4.721-2.853.623-1.203.935-2.701.935-4.495 0-1.697-.387-3.142-1.161-4.335a5.456 5.456 0 00-3.19-2.32 5.242 5.242 0 00-1.466-.209zm36.802 5.253v-.5c0-1.568-.343-2.718-1.031-3.448-.354-.376-.854-.693-1.498-.951a6.4 6.4 0 00-2.369-.451c-1.311 0-2.39.209-3.239.628-.429.204-.709.435-.838.693.613.237.919.768.919 1.595 0 .398-.108.747-.322 1.048-.333.462-.811.693-1.435.693a1.59 1.59 0 01-1.24-.564c-.355-.408-.532-.929-.532-1.563 0-1.042.612-1.955 1.837-2.74 1.375-.891 3.024-1.337 4.947-1.337 1.901 0 3.491.414 4.769 1.241 1.536.999 2.304 2.949 2.304 5.849v7.428c0 1.526.344 2.288 1.032 2.288.612 0 1.181-.553 1.708-1.659l.95 1.224c-.762 1.805-1.804 2.707-3.126 2.707-1.729 0-2.664-1.155-2.803-3.464-1.343 2.309-3.663 3.464-6.961 3.464-1.88 0-3.352-.671-4.415-2.014-.731-.935-1.096-2.046-1.096-3.335 0-2.052 1.026-3.658 3.078-4.818 1.987-1.139 4.646-1.789 7.976-1.95l1.385-.064zm0 1.659l-1.224.065c-2.815.15-4.979.644-6.494 1.482-1.45.795-2.175 1.961-2.175 3.497 0 .999.268 1.794.806 2.384.623.699 1.552 1.048 2.787 1.048 1.214 0 2.38-.29 3.497-.87 1.181-.613 2.009-1.375 2.481-2.288.215-.43.322-.854.322-1.273v-4.045zm24.541 13.858v-1.193c1.375-.021 2.245-.225 2.61-.612.333-.355.5-1.021.5-1.998v-1.869c-.913.591-1.939.886-3.078.886-1.955 0-3.545-.913-4.769-2.739-1.128-1.665-1.692-3.765-1.692-6.301 0-2.417.655-4.458 1.966-6.123 1.289-1.643 2.814-2.465 4.576-2.465.838 0 1.837.387 2.997 1.16v-4.221c0-.989-.177-1.606-.532-1.853-.354-.258-1.155-.425-2.401-.5v-1.192c2.041-.011 3.765-.231 5.173-.661v8.427c1.052-.773 2.035-1.16 2.948-1.16 1.698 0 3.175.763 4.431 2.288 1.397 1.687 2.095 3.798 2.095 6.333 0 2.417-.526 4.447-1.579 6.09-1.224 1.945-2.857 2.917-4.898 2.917-1.16 0-2.16-.295-2.997-.886v1.869c0 1.053.193 1.756.58 2.111.354.311 1.171.478 2.449.499v1.193h-8.379zm3.11-19.449c-.86-.967-1.816-1.45-2.868-1.45-.999 0-1.869.531-2.611 1.595-.945 1.353-1.418 3.185-1.418 5.495 0 2.073.317 3.749.951 5.027.773 1.547 1.885 2.32 3.336 2.32 1.031 0 1.901-.376 2.61-1.128v-11.859zm2.24 11.859c.666.752 1.509 1.128 2.529 1.128 1.429 0 2.536-.741 3.32-2.223.676-1.289 1.015-3.008 1.015-5.157 0-2.17-.441-3.931-1.321-5.285-.763-1.181-1.655-1.772-2.675-1.772-1.107 0-2.063.483-2.868 1.45v11.859zm21.285-14.163h8.347v1.192c-1.343.011-2.197.215-2.562.612-.322.333-.483.999-.483 1.998v8.605l10.409-9.507c-.011-.644-.21-1.074-.596-1.289-.495-.279-1.322-.419-2.482-.419v-1.192h8.347v1.192c-1.332.011-2.186.215-2.562.612-.312.333-.468.999-.468 1.998v10.184c0 1.053.194 1.756.581 2.111.365.322 1.181.499 2.449.532V203h-8.347v-1.192c1.321-.022 2.17-.221 2.546-.597.354-.343.532-1.025.532-2.046v-8.975l-10.409 9.475c0 .827.193 1.38.58 1.659.408.29 1.23.451 2.465.484V203h-8.347v-1.192c1.268-.033 2.1-.231 2.498-.597.354-.311.532-.993.532-2.046v-10.184c0-1.095-.194-1.799-.581-2.11-.418-.323-1.235-.489-2.449-.5v-1.192zM378.768 203v-1.192c.698 0 1.375-.215 2.03-.645.462-.301.945-.934 1.45-1.901 1.268-2.439 2.804-4.066 4.608-4.883v-.161c-2.073-.118-3.604-.483-4.592-1.095-1.181-.731-1.772-1.821-1.772-3.271 0-1.601.757-2.799 2.272-3.594 1.396-.719 3.265-1.079 5.607-1.079h9.958v1.192c-1.353.011-2.218.215-2.594.612-.29.301-.435.962-.435 1.982v10.2c0 1.074.182 1.778.548 2.111.365.333 1.192.51 2.481.532V203h-8.379v-1.192c1.354-.033 2.218-.247 2.594-.645.344-.354.516-1.02.516-1.998v-4.689h-3.271c-3.298 1.3-5.532 4.141-6.703 8.524h-4.318zm14.292-10.039v-3.818c0-.978-.145-1.628-.435-1.95-.29-.333-.881-.5-1.772-.5h-2.482c-3.513 0-5.269 1.048-5.269 3.142 0 2.084 1.864 3.126 5.591 3.126h4.367z" fill="#fff"/></svg>