<svg width="720" height="26" viewBox="0 0 720 26" fill="none" xmlns="http://www.w3.org/2000/svg"><path d="M7.022 9.116c-.556-.928-1.245-1.391-2.065-1.391-.723 0-1.265.42-1.626 1.26-.352.84-.527 2.24-.527 4.204 0 1.962.175 3.359.527 4.189.361.83.903 1.245 1.626 1.245.82 0 1.509-.459 2.065-1.377v-8.13zm0 9.961c-.517.84-1.206 1.26-2.065 1.26-1.396 0-2.441-.615-3.135-1.846-.693-1.23-1.04-2.998-1.04-5.303 0-2.294.347-4.062 1.04-5.302.694-1.24 1.739-1.86 3.135-1.86.86 0 1.548.42 2.065 1.26V.883h2.022v6.401c.518-.84 1.206-1.26 2.065-1.26 1.397 0 2.442.62 3.135 1.86.694 1.241 1.04 3.009 1.04 5.303 0 2.305-.347 4.073-1.04 5.303-.693 1.23-1.738 1.846-3.135 1.846-.859 0-1.547-.42-2.065-1.26v6.387H7.022v-6.387zm2.022-1.83c.557.917 1.245 1.376 2.065 1.376.723 0 1.26-.415 1.612-1.245.361-.83.542-2.227.542-4.19 0-1.962-.181-3.364-.542-4.204-.352-.84-.889-1.26-1.612-1.26-.82 0-1.508.464-2.065 1.392v8.13zm22.544-4.03c0 1.065-.171 2.032-.513 2.901a6.212 6.212 0 01-1.45 2.241 6.742 6.742 0 01-2.256 1.45c-.879.352-1.86.528-2.944.528-1.065 0-2.036-.176-2.915-.527a6.906 6.906 0 01-2.27-1.45 6.482 6.482 0 01-1.45-2.242c-.333-.869-.499-1.836-.499-2.9 0-1.035.166-1.997.498-2.886.342-.898.825-1.66 1.45-2.285a6.674 6.674 0 012.27-1.48c.88-.36 1.851-.542 2.916-.542 1.084 0 2.065.181 2.944.542a6.52 6.52 0 012.256 1.48 6.144 6.144 0 011.45 2.285c.342.889.513 1.85.513 2.886zm-2.007 0c0-.78-.117-1.498-.351-2.152a4.927 4.927 0 00-1.011-1.744 4.753 4.753 0 00-1.64-1.172c-.636-.283-1.353-.424-2.154-.424-.801 0-1.524.141-2.168.424a4.639 4.639 0 00-1.612 1.172 5.239 5.239 0 00-1.01 1.744 6.595 6.595 0 00-.337 2.153c0 .781.112 1.504.337 2.168.234.654.571 1.22 1.01 1.699.44.479.977.854 1.612 1.128.644.273 1.367.41 2.168.41.8 0 1.518-.137 2.153-.41a4.776 4.776 0 001.64-1.128 4.659 4.659 0 001.012-1.7 6.47 6.47 0 00.351-2.167zm18.032-.424H45.9V8.062h-4.101v10.224h3.076V20h-8.189v-1.714h3.091V8.062h-4.101v4.731H33.96V6.348h13.652v6.445zm16.729.425c0 1.064-.171 2.031-.513 2.9a6.212 6.212 0 01-1.45 2.241 6.741 6.741 0 01-2.256 1.45c-.879.352-1.86.528-2.944.528-1.065 0-2.036-.176-2.915-.527a6.906 6.906 0 01-2.27-1.45 6.482 6.482 0 01-1.451-2.242c-.332-.869-.498-1.836-.498-2.9 0-1.035.166-1.997.498-2.886.342-.898.825-1.66 1.45-2.285a6.674 6.674 0 012.27-1.48c.88-.36 1.851-.542 2.916-.542 1.084 0 2.065.181 2.944.542a6.52 6.52 0 012.256 1.48 6.144 6.144 0 011.45 2.285c.342.889.513 1.85.513 2.886zm-2.007 0c0-.781-.117-1.5-.352-2.153a4.927 4.927 0 00-1.01-1.744 4.753 4.753 0 00-1.641-1.172c-.635-.283-1.352-.424-2.153-.424-.801 0-1.524.141-2.168.424a4.639 4.639 0 00-1.612 1.172 5.239 5.239 0 00-1.01 1.744 6.595 6.595 0 00-.337 2.153c0 .781.112 1.504.337 2.168.234.654.571 1.22 1.01 1.699.44.479.977.854 1.612 1.128.644.273 1.367.41 2.168.41.8 0 1.518-.137 2.153-.41a4.776 4.776 0 001.64-1.128 4.659 4.659 0 001.011-1.7 6.47 6.47 0 00.352-2.167zm5.098-6.87h12.934v1.714H69.44V20h-2.006V6.348zm29.311 6.84c0 1.065-.166 2.032-.498 2.9a6.68 6.68 0 01-1.406 2.257 6.257 6.257 0 01-2.168 1.465c-.85.351-1.802.527-2.857.527a5.813 5.813 0 01-2.109-.396 6.333 6.333 0 01-1.89-1.171v6.694H83.81V6.348h2.006v1.26c1.24-1.055 2.574-1.583 4-1.583 1.054 0 2.006.176 2.856.528.85.342 1.572.835 2.168 1.48a6.623 6.623 0 011.406 2.284c.332.88.498 1.836.498 2.871zm-2.007 0c0-.761-.107-1.474-.322-2.138a4.76 4.76 0 00-.938-1.743 4.498 4.498 0 00-1.552-1.158c-.606-.283-1.309-.424-2.11-.424-.761 0-1.474.141-2.138.424-.655.284-1.275.743-1.86 1.377v7.325c.585.634 1.206 1.088 1.86 1.362.664.273 1.377.41 2.138.41.801 0 1.504-.142 2.11-.425a4.498 4.498 0 001.553-1.157 4.79 4.79 0 00.937-1.714 6.906 6.906 0 00.322-2.139zm4.703 3.12c0-.859.214-1.577.644-2.153a4.408 4.408 0 011.685-1.377c.703-.341 1.503-.586 2.402-.732a16.29 16.29 0 012.768-.234c.362 0 .684.004.967.014a21.764 21.764 0 011.612.117c.263.03.551.064.864.103v-.981c0-.665-.147-1.211-.44-1.641a3.15 3.15 0 00-1.054-1.01c-.42-.255-.86-.43-1.319-.528a5.277 5.277 0 00-1.172-.161c-1.015 0-1.953.136-2.812.41-.859.273-1.66.64-2.402 1.098l-.909-1.508a12.215 12.215 0 012.754-1.216c1.026-.322 2.149-.484 3.369-.484.743 0 1.47.098 2.183.293a5.83 5.83 0 011.934.88c.576.39 1.035.907 1.377 1.552.341.645.512 1.416.512 2.315V20h-2.021v-2.285c-.352.44-.752.825-1.201 1.157a6.97 6.97 0 01-1.392.82 8.49 8.49 0 01-1.465.47 5.964 5.964 0 01-1.391.175c-1.807 0-3.174-.347-4.102-1.04-.928-.694-1.392-1.69-1.392-2.988zm5.493 2.315c.839 0 1.591-.122 2.255-.366.674-.254 1.246-.567 1.714-.938.469-.37.83-.766 1.084-1.186.264-.42.396-.801.396-1.143v-1.289a14.372 14.372 0 00-1.89-.161 97.103 97.103 0 00-1.553-.015c-.722 0-1.42.05-2.094.147-.664.098-1.245.259-1.743.483-.498.215-.899.498-1.202.85-.302.351-.454.786-.454 1.304 0 .576.279 1.108.835 1.596.567.479 1.45.718 2.652.718zm16.728-9.507c-.557-.928-1.245-1.391-2.065-1.391-.723 0-1.265.42-1.626 1.26-.352.84-.528 2.24-.528 4.204 0 1.962.176 3.359.528 4.189.361.83.903 1.245 1.626 1.245.82 0 1.508-.459 2.065-1.377v-8.13zm0 9.961c-.517.84-1.206 1.26-2.065 1.26-1.397 0-2.442-.615-3.135-1.846-.693-1.23-1.04-2.998-1.04-5.303 0-2.294.347-4.062 1.04-5.302.693-1.24 1.738-1.86 3.135-1.86.859 0 1.548.42 2.065 1.26V.883h2.022v6.401c.517-.84 1.206-1.26 2.065-1.26 1.397 0 2.441.62 3.135 1.86.693 1.241 1.04 3.009 1.04 5.303 0 2.305-.347 4.073-1.04 5.303-.694 1.23-1.738 1.846-3.135 1.846-.859 0-1.548-.42-2.065-1.26v6.387h-2.022v-6.387zm2.022-1.83c.556.917 1.245 1.376 2.065 1.376.723 0 1.26-.415 1.611-1.245.362-.83.542-2.227.542-4.19 0-1.962-.18-3.364-.542-4.204-.351-.84-.888-1.26-1.611-1.26-.82 0-1.509.464-2.065 1.392v8.13zm9.257-10.9h2.007v11.016l7.383-11.015h2.827V20h-2.021V8.486L135.431 20h-2.491V6.348zm16.377 0h2.007v11.016l7.383-11.015h2.827V20h-2.021V8.486L151.808 20h-2.491V6.348zm45.176 11.075c-.576.898-1.367 1.611-2.373 2.139-.996.517-2.182.776-3.559.776-1.065 0-2.041-.176-2.93-.527a6.744 6.744 0 01-2.285-1.465 6.812 6.812 0 01-1.465-2.256c-.352-.87-.527-1.836-.527-2.9 0-1.036.161-1.993.483-2.872.322-.888.781-1.645 1.377-2.27a6.135 6.135 0 012.182-1.48c.87-.36 1.832-.542 2.886-.542.42 0 .85.05 1.289.147.44.098.855.249 1.245.454.391.195.743.435 1.055.718.313.273.547.6.703.981V6.348h1.802v5.464h-1.802c0-.606-.112-1.158-.337-1.656a3.865 3.865 0 00-.893-1.289 3.94 3.94 0 00-1.363-.835 4.642 4.642 0 00-1.699-.307c-.82 0-1.538.141-2.153.424a4.392 4.392 0 00-1.524 1.158 5.094 5.094 0 00-.937 1.728 7.173 7.173 0 00-.308 2.153c0 .782.118 1.504.352 2.168.244.655.591 1.221 1.04 1.7.459.478 1.006.859 1.641 1.142.644.283 1.367.425 2.168.425 1.015 0 1.918-.195 2.71-.586.791-.39 1.396-.918 1.816-1.582l1.406.967zm3.237.864c.459-.098.899-.361 1.319-.79.42-.43.786-1.026 1.098-1.788.313-.762.562-1.685.748-2.768.195-1.094.293-2.35.293-3.765V6.348h7.456v11.938h2.739v6.387h-1.802V20h-10.049v4.673h-1.802v-6.387zm5.464-9.111c0 1.133-.083 2.197-.249 3.193-.156.986-.366 1.87-.63 2.652-.253.78-.546 1.455-.878 2.021-.333.557-.66.972-.982 1.245h6.182V8.062h-3.443v1.113zm12.92 4.702c.147 1.445.674 2.598 1.582 3.457.908.86 2.09 1.289 3.545 1.289 1.026 0 1.939-.21 2.739-.63.801-.42 1.402-.942 1.802-1.567l1.406.967c-.683.957-1.499 1.689-2.446 2.197-.947.498-2.114.747-3.501.747-1.054 0-2.021-.176-2.9-.527a6.945 6.945 0 01-2.285-1.465 6.711 6.711 0 01-1.48-2.256c-.351-.87-.527-1.836-.527-2.9 0-1.036.156-1.988.469-2.857a6.579 6.579 0 011.377-2.27 6.173 6.173 0 012.197-1.495c.859-.36 1.821-.542 2.886-.542 1.162 0 2.177.196 3.046.586.87.391 1.592.933 2.168 1.626.586.684 1.016 1.504 1.289 2.461.284.957.425 2.017.425 3.179h-11.792zm9.668-1.714c-.224-1.494-.766-2.607-1.626-3.34-.859-.732-1.919-1.098-3.178-1.098-.645 0-1.241.107-1.788.322a4.357 4.357 0 00-1.45.893 5.03 5.03 0 00-1.054 1.421 5.212 5.212 0 00-.542 1.802h9.638zm17.637-5.815V20h-2.022V8.062h-6.167v8.906c0 .537-.092 1.015-.278 1.435-.176.42-.415.772-.718 1.055a3.063 3.063 0 01-1.054.645 3.439 3.439 0 01-1.26.234c-.82 0-1.421-.122-1.802-.366l.396-1.597c.136.088.288.151.454.19.176.04.405.059.688.059 1.035 0 1.553-.552 1.553-1.655V6.348h10.21zm3.413 9.96c0-.859.215-1.577.645-2.153a4.404 4.404 0 011.684-1.377c.703-.341 1.504-.586 2.402-.732a16.31 16.31 0 012.769-.234c.361 0 .684.004.967.014a21.558 21.558 0 011.611.117c.264.03.552.064.864.103v-.981c0-.665-.146-1.211-.439-1.641a3.153 3.153 0 00-1.055-1.01 4.24 4.24 0 00-1.318-.528 5.284 5.284 0 00-1.172-.161c-1.016 0-1.953.136-2.812.41-.86.273-1.661.64-2.403 1.098l-.908-1.508c.82-.498 1.738-.904 2.754-1.216 1.025-.322 2.148-.484 3.369-.484.742 0 1.47.098 2.183.293a5.824 5.824 0 011.933.88c.576.39 1.035.907 1.377 1.552.342.645.513 1.416.513 2.315V20h-2.022v-2.285c-.351.44-.752.825-1.201 1.157a6.935 6.935 0 01-1.391.82 8.518 8.518 0 01-1.465.47 5.965 5.965 0 01-1.392.175c-1.806 0-3.174-.347-4.101-1.04-.928-.694-1.392-1.69-1.392-2.988zm5.493 2.315c.84 0 1.592-.122 2.256-.366.674-.254 1.245-.567 1.714-.938.469-.37.83-.766 1.084-1.186.264-.42.395-.801.395-1.143v-1.289a14.372 14.372 0 00-1.889-.161 97.207 97.207 0 00-1.553-.015c-.723 0-1.421.05-2.095.147-.664.098-1.245.259-1.743.483-.498.215-.898.498-1.201.85-.303.351-.454.786-.454 1.304 0 .576.278 1.108.835 1.596.566.479 1.45.718 2.651.718zM276.173 20h-2.022v-6.123h-8.188V20h-2.007V6.348h2.007v5.815h8.188V6.348h2.022V20zm15.088-13.652h2.007V20h-2.007V6.348zm-9.639 5.464h2.344c1.504 0 2.646.327 3.428.981.791.645 1.186 1.675 1.186 3.09 0 1.427-.395 2.472-1.186 3.136-.782.654-1.915.981-3.399.981h-4.38V6.348h2.007v5.464zm4.951 4.072c0-.752-.224-1.333-.674-1.743-.449-.41-1.084-.616-1.904-.616h-2.373v4.761h2.373c.82 0 1.455-.21 1.904-.63.45-.42.674-1.01.674-1.772zM325.304 20h-2.022v-6.123h-8.188V20h-2.007V6.348h2.007v5.815h8.188V6.348h2.022V20zm3.413-3.691c0-.86.215-1.578.644-2.154a4.415 4.415 0 011.685-1.377c.703-.341 1.504-.586 2.402-.732a16.293 16.293 0 012.769-.234c.361 0 .683.004.967.014a21.558 21.558 0 011.611.117c.264.03.552.064.864.103v-.981c0-.665-.146-1.211-.439-1.641a3.153 3.153 0 00-1.055-1.01 4.24 4.24 0 00-1.318-.528 5.284 5.284 0 00-1.172-.161c-1.016 0-1.953.136-2.813.41-.859.273-1.66.64-2.402 1.098l-.908-1.508c.82-.498 1.738-.904 2.754-1.216 1.025-.322 2.148-.484 3.369-.484.742 0 1.47.098 2.182.293a5.82 5.82 0 011.934.88c.576.39 1.035.907 1.377 1.552.342.645.513 1.416.513 2.315V20h-2.022v-2.285c-.351.44-.752.825-1.201 1.157a6.915 6.915 0 01-1.392.82 8.48 8.48 0 01-1.464.47 5.978 5.978 0 01-1.392.175c-1.807 0-3.174-.347-4.102-1.04-.927-.694-1.391-1.69-1.391-2.988zm5.493 2.314c.84 0 1.592-.122 2.256-.366.674-.254 1.245-.567 1.714-.938.468-.37.83-.766 1.084-1.186.263-.42.395-.801.395-1.143v-1.289a14.372 14.372 0 00-1.889-.161 97.207 97.207 0 00-1.553-.015c-.723 0-1.421.05-2.095.147-.664.098-1.245.259-1.743.483-.498.215-.899.498-1.201.85-.303.351-.454.786-.454 1.304 0 .576.278 1.108.835 1.596.566.479 1.45.718 2.651.718zm27.29-.337c.459-.098.898-.361 1.318-.79.42-.43.786-1.026 1.099-1.788.312-.762.562-1.685.747-2.768.195-1.094.293-2.35.293-3.765V6.348h7.456v11.938h2.739v6.387h-1.801V20h-10.049v4.673H361.5v-6.387zm5.464-9.111c0 1.133-.083 2.197-.249 3.193-.156.986-.366 1.87-.63 2.652-.254.78-.547 1.455-.879 2.021-.332.557-.659.972-.981 1.245h6.181V8.062h-3.442v1.113zm12.92 4.702c.146 1.445.674 2.598 1.582 3.457.908.86 2.09 1.289 3.545 1.289 1.025 0 1.938-.21 2.739-.63.801-.42 1.401-.942 1.802-1.567l1.406.967c-.684.957-1.499 1.689-2.446 2.197-.948.498-2.115.747-3.501.747-1.055 0-2.022-.176-2.901-.527a6.955 6.955 0 01-2.285-1.465 6.694 6.694 0 01-1.479-2.256c-.352-.87-.528-1.836-.528-2.9 0-1.036.157-1.988.469-2.857a6.579 6.579 0 011.377-2.27 6.19 6.19 0 012.197-1.495c.86-.36 1.822-.542 2.886-.542 1.162 0 2.178.196 3.047.586.869.391 1.592.933 2.168 1.626.586.684 1.016 1.504 1.289 2.461.283.957.425 2.017.425 3.179h-11.792zm9.668-1.714c-.225-1.494-.767-2.607-1.626-3.34-.86-.732-1.919-1.098-3.179-1.098-.644 0-1.24.107-1.787.322a4.347 4.347 0 00-1.45.893c-.42.391-.772.865-1.055 1.421a5.234 5.234 0 00-.542 1.802h9.639zm18.354.63h-1.714V8.062h-4.101v10.224h3.076V20h-8.188v-1.714h3.09V8.062h-4.101v4.731h-1.714V6.348h13.652v6.445zm15.865 4.629c-.577.898-1.368 1.611-2.374 2.139-.996.517-2.182.776-3.559.776-1.065 0-2.041-.176-2.93-.527a6.763 6.763 0 01-2.285-1.465 6.828 6.828 0 01-1.465-2.256c-.351-.87-.527-1.836-.527-2.9 0-1.036.161-1.993.483-2.872.323-.888.782-1.645 1.377-2.27a6.13 6.13 0 012.183-1.48c.869-.36 1.831-.542 2.886-.542.419 0 .849.05 1.289.147a5.01 5.01 0 011.245.454c.39.195.742.435 1.054.718.313.273.547.6.704.981V6.348h1.801v5.464h-1.801a3.99 3.99 0 00-.337-1.656 3.868 3.868 0 00-.894-1.289 3.945 3.945 0 00-1.362-.835 4.65 4.65 0 00-1.699-.307c-.821 0-1.539.141-2.154.424a4.388 4.388 0 00-1.523 1.158 5.096 5.096 0 00-.938 1.728 7.173 7.173 0 00-.307 2.153c0 .782.117 1.504.351 2.168.244.655.591 1.221 1.04 1.7.459.478 1.006.859 1.641 1.142.644.283 1.367.425 2.168.425 1.016 0 1.919-.195 2.71-.586.791-.39 1.396-.918 1.816-1.582l1.407.967zM440.631 20h-2.857l-5.581-6.123-2.461 2.256V20h-2.006V6.348h2.006V13.7l7.779-7.353h2.871l-6.841 6.27 7.09 7.382zm16.831-13.652l-7.383 17.109c-.381.957-.918 1.582-1.611 1.875-.694.303-1.46.454-2.3.454-.938 0-1.875-.17-2.813-.513l.396-1.728c.459.195.908.332 1.348.41.439.088.796.132 1.069.132.664 0 1.118-.161 1.362-.483.254-.323.474-.704.659-1.143l.835-2.066-6.093-14.047h2.373l4.922 11.938 4.834-11.938h2.402zm3.017 0h2.007v5.976h2.769c.176-4.199 1.533-6.299 4.072-6.299 2.725 0 4.087 2.388 4.087 7.163 0 4.766-1.362 7.149-4.087 7.149-2.578 0-3.935-2.105-4.072-6.314h-2.769V20h-2.007V6.348zm8.848 12.363c1.387 0 2.08-1.84 2.08-5.522 0-3.663-.693-5.494-2.08-5.494-1.377 0-2.065 1.831-2.065 5.493 0 3.682.688 5.523 2.065 5.523zm23.906-12.363h2.007v4.35c0 1.22.264 2.168.791 2.842.537.664 1.397.996 2.578.996.743 0 1.412-.166 2.007-.498a4.945 4.945 0 001.524-1.362 6.3 6.3 0 00.952-1.978 7.966 7.966 0 00.337-2.314V6.348h2.021V20h-2.021v-7.5c-.957 2.5-2.676 3.75-5.157 3.75-3.359 0-5.039-1.85-5.039-5.552v-4.35zm17.666 7.529c.147 1.445.674 2.598 1.582 3.457.909.86 2.09 1.289 3.545 1.289 1.026 0 1.939-.21 2.74-.63.8-.42 1.401-.942 1.801-1.567l1.407.967c-.684.957-1.499 1.689-2.447 2.197-.947.498-2.114.747-3.501.747-1.054 0-2.021-.176-2.9-.527a6.945 6.945 0 01-2.285-1.465 6.711 6.711 0 01-1.48-2.256c-.351-.87-.527-1.836-.527-2.9 0-1.036.156-1.988.469-2.857a6.579 6.579 0 011.377-2.27 6.182 6.182 0 012.197-1.495c.859-.36 1.821-.542 2.886-.542 1.162 0 2.177.196 3.047.586.869.391 1.591.933 2.168 1.626.585.684 1.015 1.504 1.289 2.461.283.957.424 2.017.424 3.179h-11.792zm9.668-1.714c-.224-1.494-.766-2.607-1.626-3.34-.859-.732-1.919-1.098-3.178-1.098a4.84 4.84 0 00-1.787.322 4.352 4.352 0 00-1.451.893 5.03 5.03 0 00-1.054 1.421 5.234 5.234 0 00-.542 1.802h9.638zM538.893 20h-2.857l-5.581-6.123-2.461 2.256V20h-2.007V6.348h2.007V13.7l7.778-7.353h2.872l-6.841 6.27 7.09 7.382zm16.757-6.782c0 1.064-.171 2.031-.512 2.9a6.222 6.222 0 01-1.45 2.241 6.752 6.752 0 01-2.256 1.45c-.879.352-1.861.528-2.945.528-1.064 0-2.036-.176-2.915-.527a6.906 6.906 0 01-2.27-1.45 6.47 6.47 0 01-1.45-2.242c-.332-.869-.498-1.836-.498-2.9 0-1.035.166-1.997.498-2.886.341-.898.825-1.66 1.45-2.285a6.674 6.674 0 012.27-1.48c.879-.36 1.851-.542 2.915-.542 1.084 0 2.066.181 2.945.542.879.352 1.63.845 2.256 1.48a6.154 6.154 0 011.45 2.285c.341.889.512 1.85.512 2.886zm-2.006 0c0-.781-.118-1.5-.352-2.153a4.937 4.937 0 00-1.011-1.744 4.753 4.753 0 00-1.64-1.172c-.635-.283-1.353-.424-2.154-.424-.8 0-1.523.141-2.168.424a4.64 4.64 0 00-1.611 1.172 5.258 5.258 0 00-1.011 1.744 6.61 6.61 0 00-.337 2.153c0 .781.113 1.504.337 2.168.235.654.572 1.22 1.011 1.699.439.479.977.854 1.611 1.128.645.273 1.368.41 2.168.41.801 0 1.519-.137 2.154-.41a4.776 4.776 0 001.64-1.128 4.668 4.668 0 001.011-1.7 6.48 6.48 0 00.352-2.167zm18.002 2.886c0 1.318-.488 2.3-1.464 2.944-.967.635-2.359.952-4.175.952h-7.266V6.348h6.812c.664 0 1.318.053 1.963.16a5.532 5.532 0 011.743.543c.508.254.923.61 1.245 1.07.322.458.483 1.059.483 1.8 0 .704-.171 1.295-.512 1.773-.342.479-1.011.845-2.007 1.099 1.22.283 2.055.703 2.505 1.26.449.547.673 1.23.673 2.05zm-2.666-6.065c0-.42-.112-.757-.336-1.01a2.161 2.161 0 00-.835-.601 3.693 3.693 0 00-1.084-.293 9.686 9.686 0 00-1.172-.073h-4.805v3.925h4.805c.4 0 .805-.024 1.216-.073.41-.049.781-.146 1.113-.293.332-.156.596-.356.791-.6.205-.254.307-.582.307-.982zm.66 5.977c0-.801-.328-1.387-.982-1.758-.654-.371-1.548-.557-2.68-.557h-5.23v4.585h5.23c1.132 0 2.026-.19 2.68-.571.654-.381.982-.947.982-1.7zm18.838-9.668l-7.383 17.109c-.381.957-.918 1.582-1.612 1.875-.693.303-1.46.454-2.299.454-.938 0-1.875-.17-2.813-.513l.396-1.728c.459.195.908.332 1.347.41.44.088.796.132 1.07.132.664 0 1.118-.161 1.362-.483.254-.323.474-.704.659-1.143l.835-2.066-6.094-14.047h2.373l4.922 11.938 4.834-11.938h2.403zm3.017 0h2.007v5.976h2.769c.175-4.199 1.533-6.299 4.072-6.299 2.724 0 4.087 2.388 4.087 7.163 0 4.766-1.363 7.149-4.087 7.149-2.578 0-3.936-2.105-4.072-6.314h-2.769V20h-2.007V6.348zm8.848 12.363c1.386 0 2.08-1.84 2.08-5.522 0-3.663-.694-5.494-2.08-5.494-1.377 0-2.066 1.831-2.066 5.493 0 3.682.689 5.523 2.066 5.523zM637.154 20h-2.856l-5.581-6.123-2.461 2.256V20h-2.007V6.348h2.007V13.7l7.778-7.353h2.871l-6.841 6.27 7.09 7.382zm2.725-3.691c0-.86.215-1.578.644-2.154a4.415 4.415 0 011.685-1.377c.703-.341 1.504-.586 2.402-.732a16.302 16.302 0 012.769-.234c.361 0 .683.004.967.014a21.558 21.558 0 011.611.117c.264.03.552.064.864.103v-.981c0-.665-.146-1.211-.439-1.641a3.153 3.153 0 00-1.055-1.01 4.24 4.24 0 00-1.318-.528 5.284 5.284 0 00-1.172-.161c-1.016 0-1.953.136-2.813.41-.859.273-1.66.64-2.402 1.098l-.908-1.508c.82-.498 1.738-.904 2.754-1.216 1.025-.322 2.148-.484 3.369-.484.742 0 1.47.098 2.183.293a5.824 5.824 0 011.933.88c.576.39 1.035.907 1.377 1.552.342.645.513 1.416.513 2.315V20h-2.022v-2.285c-.351.44-.752.825-1.201 1.157a6.935 6.935 0 01-1.391.82 8.518 8.518 0 01-1.465.47 5.972 5.972 0 01-1.392.175c-1.807 0-3.174-.347-4.101-1.04-.928-.694-1.392-1.69-1.392-2.988zm5.493 2.314c.84 0 1.592-.122 2.256-.366.674-.254 1.245-.567 1.714-.938.469-.37.83-.766 1.084-1.186.263-.42.395-.801.395-1.143v-1.289a14.372 14.372 0 00-1.889-.161 97.207 97.207 0 00-1.553-.015c-.723 0-1.421.05-2.095.147-.664.098-1.245.259-1.743.483-.498.215-.898.498-1.201.85-.303.351-.454.786-.454 1.304 0 .576.278 1.108.835 1.596.566.479 1.45.718 2.651.718zM669.22 20h-2.022V9.175l-3.354 7.075h-1.436l-3.398-7.075V20h-2.007V6.348h2.607l3.516 7.119 3.486-7.12h2.608V20zm5.449-6.123c.146 1.445.674 2.598 1.582 3.457.908.86 2.09 1.289 3.545 1.289 1.025 0 1.938-.21 2.739-.63.801-.42 1.402-.942 1.802-1.567l1.406.967c-.683.957-1.499 1.689-2.446 2.197-.947.498-2.114.747-3.501.747-1.055 0-2.022-.176-2.9-.527a6.96 6.96 0 01-2.286-1.465 6.709 6.709 0 01-1.479-2.256c-.352-.87-.527-1.836-.527-2.9 0-1.036.156-1.988.468-2.857a6.61 6.61 0 011.377-2.27 6.19 6.19 0 012.197-1.495c.86-.36 1.822-.542 2.886-.542 1.162 0 2.178.196 3.047.586.869.391 1.592.933 2.168 1.626.586.684 1.016 1.504 1.289 2.461.283.957.425 2.017.425 3.179h-11.792zm9.668-1.714c-.225-1.494-.767-2.607-1.626-3.34-.859-.732-1.919-1.098-3.179-1.098-.644 0-1.24.107-1.787.322a4.347 4.347 0 00-1.45.893c-.42.391-.772.865-1.055 1.421a5.234 5.234 0 00-.542 1.802h9.639zm18.354 1.025c0 1.065-.166 2.032-.498 2.9-.332.87-.8 1.622-1.406 2.257a6.256 6.256 0 01-2.168 1.465c-.849.351-1.802.527-2.856.527a5.817 5.817 0 01-2.11-.396 6.33 6.33 0 01-1.889-1.171v6.694h-2.007V6.348h2.007v1.26c1.24-1.055 2.573-1.583 3.999-1.583 1.054 0 2.007.176 2.856.528.85.342 1.572.835 2.168 1.48a6.615 6.615 0 011.406 2.284c.332.88.498 1.836.498 2.871zm-2.006 0c0-.761-.108-1.474-.323-2.138a4.759 4.759 0 00-.937-1.743 4.502 4.502 0 00-1.553-1.158c-.605-.283-1.309-.424-2.109-.424-.762 0-1.475.141-2.139.424-.654.284-1.274.743-1.86 1.377v7.325c.586.634 1.206 1.088 1.86 1.362.664.273 1.377.41 2.139.41.8 0 1.504-.142 2.109-.425a4.502 4.502 0 001.553-1.157 4.79 4.79 0 00.937-1.714 6.903 6.903 0 00.323-2.139zm18.808-6.84l-7.383 17.109c-.381.957-.918 1.582-1.611 1.875-.693.303-1.46.454-2.3.454a8.16 8.16 0 01-2.812-.513l.395-1.728c.459.195.908.332 1.348.41.439.088.796.132 1.069.132.664 0 1.118-.161 1.363-.483.253-.323.473-.704.659-1.143l.835-2.066-6.094-14.047h2.373l4.922 11.938 4.834-11.938h2.402z" fill="#000"/></svg>