<svg width="137" height="39" viewBox="0 0 137 39" fill="none" xmlns="http://www.w3.org/2000/svg"><path d="M.86.012h13.501v1.806c-2.31.098-3.743.44-4.296 1.026-.44.472-.66 1.44-.66 2.905v8.765c0 2.653.708 4.695 2.124 6.128 1.433 1.432 3.41 2.148 5.933 2.148 3.808 0 7.243-1.53 10.303-4.59V5.75c0-1.156-.114-1.961-.342-2.417-.326-.651-1.05-1.082-2.173-1.294-.57-.098-1.384-.17-2.441-.22V.012h13.476v1.806c-2.23.098-3.646.415-4.248.953-.488.439-.732 1.432-.732 2.978v26.514c0 1.79.382 2.88 1.147 3.271.619.31 1.896.53 3.833.66V38H22.81v-1.807c2.343-.146 3.767-.488 4.272-1.025.456-.472.684-1.44.684-2.905V21.667c-3.207 2.588-6.706 3.882-10.498 3.882-3.841 0-6.763-1.042-8.765-3.125-1.79-1.888-2.686-4.476-2.686-7.764V5.75c0-1.546-.252-2.539-.756-2.978-.603-.538-2.002-.855-4.2-.953V.012zM59.747 24.23v.391c0 2.62.52 4.883 1.563 6.787 1.741 3.19 4.418 4.785 8.032 4.785 4.004 0 7.34-2.05 10.01-6.152l1.587 1.587C78.106 36.543 74.135 39 69.024 39c-4.492 0-7.967-1.685-10.424-5.054-1.84-2.523-2.76-5.64-2.76-9.35 0-3.825 1.026-7.08 3.077-9.766 2.49-3.223 5.77-4.834 9.839-4.834 2.848 0 5.33.806 7.446 2.417 2.377 1.79 3.923 4.24 4.639 7.349.26 1.123.39 2.278.39 3.466v1.002H59.747zm17.285-2.392c-.13-2.767-.74-4.867-1.83-6.299-1.612-2.132-3.744-3.198-6.397-3.198-2.49 0-4.615 1.066-6.372 3.198-1.4 1.693-2.263 3.792-2.588 6.299h17.187zm39.722-10.84v1.807c-2.067.016-3.386.325-3.955.927-.505.538-.757 1.547-.757 3.028v5.249c3.092-.033 5.55-.53 7.373-1.49 2.018-1.041 3.532-2.718 4.541-5.029 1.546-3.564 3.752-5.346 6.616-5.346.668 0 1.245.154 1.734.463.927.554 1.391 1.376 1.391 2.466 0 1.123-.439 1.961-1.318 2.515-.342.212-.749.317-1.221.317-1.09 0-1.847-.423-2.27-1.27a3.041 3.041 0 01-.244-1.147c-.863.147-1.693 1.172-2.491 3.076-1.009 2.41-2.498 4.224-4.467 5.445l8.862 11.084c.862 1.09 1.709 1.863 2.539 2.32.781.406 1.798.666 3.052.78V38h-12.94v-1.807c2.588-.081 3.882-.447 3.882-1.098 0-.44-.195-.92-.586-1.44l-7.593-10.06c-1.969.603-4.256.904-6.86.904v7.69c0 1.596.309 2.662.928 3.199.586.488 1.847.757 3.784.805V38h-12.695v-1.807c1.985-.048 3.247-.35 3.784-.903.537-.52.805-1.554.805-3.1V16.76c0-1.547-.268-2.588-.805-3.125-.554-.537-1.815-.814-3.784-.83v-1.807h12.695z" fill="#000"/></svg>