<svg width="476" height="63" viewBox="0 0 476 63" fill="none" xmlns="http://www.w3.org/2000/svg"><path d="M.271.816h53.492v2.496c-3.1.159-5.059.603-5.88 1.333-.706.638-1.059 2.039-1.059 4.204v37.085c0 2.21.353 3.611 1.06 4.204.797.706 2.757 1.15 5.879 1.333V54H34.86v-2.53c3.327-.204 5.344-.683 6.05-1.435.638-.66.957-2.028.957-4.101V9.43c0-2.074-.376-3.452-1.128-4.136-.706-.66-2.415-.991-5.127-.991H18.387c-2.69 0-4.387.33-5.093.99-.752.662-1.128 2.04-1.128 4.137v36.504c0 2.529.535 4.067 1.607 4.614.865.433 2.666.74 5.4.923V54H.27v-2.53c3.213-.182 5.207-.66 5.982-1.435.638-.592.957-1.96.957-4.101V8.849c0-1.595-.137-2.678-.41-3.247C6.367 4.599 5.34 3.95 3.724 3.653c-.775-.136-1.926-.25-3.453-.341V.816zm75.23 61.524v-2.53c2.894-.045 4.728-.478 5.503-1.298.73-.752 1.094-2.165 1.094-4.239v-30.59c0-1.937-.422-3.213-1.265-3.828-.797-.593-2.46-.969-4.99-1.128v-2.53c4.648-.068 8.351-.535 11.108-1.401v6.528c.98-1.8 2.427-3.27 4.341-4.409 2.37-1.413 4.945-2.12 7.725-2.12 5.104 0 9.262 1.755 12.475 5.265 3.031 3.28 4.546 7.576 4.546 12.885 0 6.426-1.652 11.268-4.956 14.527-2.962 2.962-7.132 4.443-12.51 4.443-3.213 0-6.004-.832-8.374-2.495a12.016 12.016 0 01-3.247-3.52v8.373c0 2.188.422 3.635 1.265 4.341.866.73 2.87 1.128 6.015 1.197v2.529h-18.73zm22.627-44.058c-2.871 0-5.446 1.3-7.725 3.897-2.347 2.643-3.52 6.175-3.52 10.595 0 3.965.49 7.053 1.47 9.263 1.845 4.261 5.218 6.392 10.117 6.392 4.58 0 7.918-2.017 10.014-6.05 1.322-2.552 1.983-5.73 1.983-9.536 0-3.6-.821-6.665-2.461-9.195-1.641-2.483-3.897-4.124-6.768-4.921a11.148 11.148 0 00-3.11-.445zm55.918 16.44v.547c0 3.67.729 6.837 2.187 9.503 2.439 4.466 6.187 6.699 11.246 6.699 5.605 0 10.276-2.871 14.013-8.614l2.222 2.222c-3.965 6.882-9.525 10.322-16.68 10.322-6.289 0-11.154-2.358-14.595-7.075-2.574-3.532-3.862-7.895-3.862-13.09 0-5.355 1.436-9.913 4.307-13.672 3.486-4.512 8.078-6.768 13.774-6.768 3.988 0 7.463 1.128 10.425 3.384 3.327 2.506 5.492 5.936 6.494 10.288.365 1.572.547 3.19.547 4.853v1.402h-30.078zm24.199-3.349c-.182-3.874-1.037-6.813-2.563-8.818-2.256-2.985-5.241-4.478-8.955-4.478-3.487 0-6.46 1.493-8.921 4.478-1.96 2.37-3.168 5.309-3.623 8.818h24.062zm75.913 13.33c-3.668 7.132-9.126 10.698-16.372 10.698-3.965 0-7.462-1.048-10.493-3.144-5.378-3.692-8.066-9.434-8.066-17.227 0-5.15 1.287-9.468 3.862-12.954 2.324-3.167 5.423-5.32 9.297-6.46a21.29 21.29 0 015.879-.82c4.147 0 7.553 1.06 10.219 3.179 2.393 1.868 3.589 3.885 3.589 6.05 0 .797-.159 1.549-.478 2.255-.684 1.436-1.835 2.154-3.452 2.154-1.345 0-2.37-.513-3.077-1.539-.433-.592-.649-1.298-.649-2.119 0-1.64.558-2.745 1.675-3.315-1.436-2.21-4.022-3.316-7.759-3.316-4.147 0-7.52 1.744-10.117 5.23-2.256 3.053-3.384 6.939-3.384 11.655 0 3.441.627 6.437 1.88 8.99 1.139 2.346 2.723 4.18 4.751 5.502 2.028 1.3 4.295 1.949 6.802 1.949 5.605 0 10.174-3.008 13.706-9.024l2.187 2.256zm39.888-9.98v.547c0 3.668.729 6.835 2.187 9.502 2.439 4.466 6.187 6.699 11.246 6.699 5.605 0 10.276-2.871 14.013-8.614l2.222 2.222c-3.965 6.882-9.525 10.322-16.68 10.322-6.289 0-11.154-2.358-14.595-7.075-2.574-3.532-3.862-7.895-3.862-13.09 0-5.355 1.436-9.913 4.307-13.672 3.486-4.512 8.078-6.768 13.774-6.768 3.988 0 7.463 1.128 10.425 3.384 3.327 2.506 5.492 5.936 6.494 10.288.365 1.572.547 3.19.547 4.853v1.402h-30.078zm24.199-3.35c-.182-3.874-1.037-6.813-2.563-8.818-2.256-2.985-5.241-4.478-8.955-4.478-3.487 0-6.46 1.493-8.921 4.478-1.96 2.37-3.168 5.309-3.623 8.818h24.062zm41.973-15.176h33.564l1.06 12.954h-2.598c-.205-3.212-1.162-5.64-2.871-7.28-1.572-1.55-4.113-2.324-7.622-2.324h-2.29v26.318c0 2.256.41 3.749 1.23 4.478.821.683 2.575 1.06 5.264 1.128V54h-17.91v-2.53c2.871-.068 4.705-.523 5.503-1.367.683-.706 1.025-2.119 1.025-4.238V19.547h-2.324c-3.486 0-6.027.775-7.622 2.324-1.709 1.664-2.666 4.09-2.871 7.28h-2.598l1.06-12.954zm57.866 0h17.773v2.53c-2.711.022-4.489.41-5.332 1.162-.729.683-1.093 2.13-1.093 4.34v8.067h9.228c4.922 0 8.921.832 11.997 2.495a8.184 8.184 0 012.427 1.88c1.663 1.823 2.495 3.953 2.495 6.392 0 3.053-1.105 5.525-3.315 7.416-2.735 2.348-7.292 3.521-13.672 3.521h-20.508v-2.53c2.894-.068 4.728-.523 5.503-1.367.729-.774 1.094-2.187 1.094-4.238V24.23c0-2.187-.399-3.634-1.197-4.34-.888-.775-2.688-1.162-5.4-1.162v-2.53zm11.348 19.312v10.083c0 2.165.376 3.577 1.128 4.238.752.638 2.301.957 4.648.957h3.384c7.588 0 11.382-2.597 11.382-7.793 0-4.99-3.749-7.485-11.245-7.485h-9.297zm28.676-19.312h17.774v2.53c-2.871.022-4.706.455-5.503 1.298-.729.752-1.094 2.165-1.094 4.239v21.601c0 2.233.444 3.726 1.333 4.478.82.683 2.575 1.06 5.264 1.128V54h-17.774v-2.53c2.689-.068 4.467-.49 5.332-1.264.73-.66 1.094-2.108 1.094-4.34V24.263c0-2.325-.41-3.817-1.23-4.478-.889-.706-2.621-1.06-5.196-1.06v-2.529z" fill="#000"/></svg>