<svg width="108" height="24" viewBox="0 0 108 24" fill="none" xmlns="http://www.w3.org/2000/svg"><path d="M.895 1.398H11.09v1.446c-1.64.013-2.689.26-3.145.742-.416.43-.625 1.237-.625 2.422v2.637c0 3.216 1.992 4.824 5.977 4.824 2.11 0 4.186-.502 6.23-1.504V6.008c0-1.263-.228-2.097-.683-2.5-.495-.443-1.524-.664-3.086-.664V1.398h10.176v1.446c-1.654.013-2.702.26-3.145.742-.39.404-.586 1.21-.586 2.422v12.344c0 1.276.235 2.128.703 2.558.456.404 1.465.619 3.028.645V23H15.758v-1.445c1.654-.04 2.708-.3 3.164-.782.404-.43.605-1.236.605-2.421v-4.278c-2.109 1.068-4.375 1.602-6.797 1.602-2.773 0-4.804-.554-6.093-1.66-1.354-1.146-2.032-2.937-2.032-5.371V6.008c0-1.328-.234-2.181-.703-2.559-.507-.403-1.51-.605-3.007-.605V1.398zm45.703 10.586v.313c0 2.096.416 3.906 1.25 5.43 1.393 2.552 3.535 3.828 6.425 3.828 3.204 0 5.873-1.64 8.008-4.922l1.27 1.27c-2.266 3.932-5.443 5.898-9.532 5.898-3.593 0-6.373-1.348-8.34-4.043-1.47-2.018-2.206-4.512-2.206-7.48 0-3.06.82-5.665 2.46-7.813C47.927 1.887 50.55.598 53.806.598c2.278 0 4.264.644 5.957 1.933 1.9 1.433 3.138 3.392 3.71 5.88.209.898.313 1.822.313 2.773v.8H46.598zm13.828-1.914c-.104-2.213-.593-3.893-1.465-5.039-1.29-1.705-2.995-2.558-5.117-2.558-1.992 0-3.692.853-5.098 2.558-1.12 1.354-1.81 3.034-2.07 5.04h13.75zm31.777-8.672v1.446c-1.654.013-2.708.26-3.164.742-.404.43-.605 1.237-.605 2.422v4.199c2.474-.026 4.44-.423 5.898-1.191 1.615-.834 2.826-2.175 3.633-4.024 1.237-2.851 3.001-4.277 5.293-4.277.534 0 .996.124 1.387.37.742.444 1.113 1.101 1.113 1.974 0 .898-.352 1.569-1.055 2.011-.273.17-.599.254-.976.254-.873 0-1.478-.338-1.817-1.015a2.448 2.448 0 01-.195-.918c-.69.117-1.354.937-1.992 2.46-.808 1.928-1.999 3.38-3.575 4.356l7.09 8.867c.69.873 1.367 1.491 2.032 1.856.625.325 1.438.534 2.441.625V23H97.359v-1.445c2.07-.065 3.106-.358 3.106-.88 0-.35-.156-.735-.469-1.152l-6.074-8.046c-1.576.481-3.405.722-5.488.722v6.153c0 1.276.247 2.128.742 2.558.468.39 1.478.606 3.027.645V23H82.047v-1.445c1.588-.04 2.597-.28 3.027-.723.43-.417.645-1.244.645-2.48V6.008c0-1.237-.215-2.07-.645-2.5-.442-.43-1.452-.651-3.027-.664V1.398h10.156z" fill="#000"/></svg>