<svg width="187" height="37" viewBox="0 0 187 37" fill="none" xmlns="http://www.w3.org/2000/svg"><path d="M.797 10.398h10.156v1.446c-1.627.013-2.67.26-3.125.742-.404.43-.605 1.237-.605 2.422v12.11c0 1.223.201 2.024.605 2.402.39.377 1.244.566 2.559.566h5.605c1.367 0 2.24-.221 2.617-.664.339-.39.508-1.159.508-2.305v-12.11c0-1.314-.234-2.16-.703-2.538-.508-.404-1.517-.612-3.027-.625v-1.446h10.156v1.446c-1.615.026-2.65.273-3.105.742-.404.43-.606 1.237-.606 2.422V27.37c0 1.458.39 2.37 1.172 2.735.586.273 1.686.43 3.3.468l.41 6.192h-1.523c-.143-1.51-.599-2.69-1.367-3.535-.742-.82-1.686-1.231-2.832-1.231H.797v-1.426c1.601-.039 2.624-.28 3.066-.722.43-.43.645-1.257.645-2.48V15.007c0-1.263-.215-2.09-.645-2.48-.481-.443-1.504-.671-3.066-.684v-1.446zm40.488 0h10.117v1.446c-1.627.013-2.662.26-3.105.742-.39.404-.586 1.21-.586 2.422v10.43l12.617-11.524c-.013-.781-.254-1.302-.723-1.562-.598-.339-1.601-.508-3.007-.508v-1.446h10.117v1.446c-1.615.013-2.65.26-3.106.742-.377.404-.566 1.21-.566 2.422v12.344c0 1.276.234 2.128.703 2.558.443.39 1.432.606 2.969.645V32H56.598v-1.445c1.601-.026 2.63-.267 3.086-.723.43-.417.644-1.244.644-2.48v-10.88L47.711 27.958c0 1.003.234 1.673.703 2.012.495.351 1.49.547 2.988.586V32H41.285v-1.445c1.537-.04 2.546-.28 3.028-.723.43-.378.644-1.204.644-2.48V15.008c0-1.328-.234-2.181-.703-2.559-.508-.39-1.497-.592-2.969-.605v-1.446zM89 36.766V35.32c1.667-.026 2.721-.273 3.164-.742.404-.43.605-1.237.605-2.422v-2.265c-1.106.716-2.35 1.074-3.73 1.074-2.37 0-4.297-1.107-5.781-3.32-1.367-2.019-2.051-4.564-2.051-7.637 0-2.93.794-5.404 2.383-7.422 1.562-1.992 3.411-2.988 5.547-2.988 1.015 0 2.226.468 3.632 1.406V5.887c0-1.198-.214-1.947-.644-2.246-.43-.313-1.4-.515-2.91-.606V1.59c2.474-.013 4.564-.28 6.27-.8v10.214c1.275-.938 2.467-1.406 3.574-1.406 2.057 0 3.847.924 5.371 2.773 1.692 2.044 2.539 4.603 2.539 7.676 0 2.93-.638 5.39-1.914 7.383-1.485 2.357-3.464 3.535-5.938 3.535-1.406 0-2.617-.358-3.633-1.074v2.265c0 1.276.235 2.13.704 2.559.43.377 1.419.58 2.968.605v1.446H89zm3.77-23.575c-1.042-1.171-2.201-1.757-3.477-1.757-1.211 0-2.266.644-3.164 1.933-1.146 1.64-1.719 3.86-1.719 6.66 0 2.513.384 4.545 1.153 6.094.937 1.875 2.285 2.813 4.043 2.813 1.25 0 2.304-.456 3.163-1.368V13.191zm2.714 14.375c.808.912 1.83 1.368 3.067 1.368 1.732 0 3.073-.899 4.023-2.696.821-1.562 1.231-3.646 1.231-6.25 0-2.63-.534-4.765-1.602-6.406-.924-1.432-2.005-2.148-3.242-2.148-1.341 0-2.5.586-3.477 1.757v14.375zm26.231 9.2V35.32c1.653-.026 2.702-.273 3.144-.742.417-.43.625-1.237.625-2.422v-17.48c0-1.107-.241-1.836-.722-2.188-.456-.338-1.407-.553-2.852-.644v-1.446c2.656-.039 4.772-.306 6.348-.8v3.73c.56-1.028 1.387-1.868 2.48-2.52a8.467 8.467 0 014.414-1.21c2.917 0 5.293 1.002 7.129 3.007 1.732 1.875 2.598 4.33 2.598 7.364 0 3.672-.944 6.439-2.832 8.3-1.693 1.693-4.076 2.54-7.149 2.54-1.836 0-3.431-.476-4.785-1.426a6.87 6.87 0 01-1.855-2.012v4.785c0 1.25.241 2.077.722 2.48.495.417 1.641.645 3.438.684v1.446h-10.703zm12.93-25.176c-1.641 0-3.112.742-4.415 2.226-1.341 1.51-2.011 3.53-2.011 6.055 0 2.266.28 4.03.84 5.293 1.054 2.435 2.981 3.652 5.781 3.652 2.617 0 4.525-1.152 5.722-3.457.756-1.458 1.133-3.274 1.133-5.449 0-2.057-.468-3.808-1.406-5.254-.937-1.419-2.227-2.357-3.867-2.812a6.376 6.376 0 00-1.777-.254zm44.609 6.367v-.605c0-1.902-.417-3.295-1.25-4.18-.43-.456-1.035-.84-1.816-1.152a7.763 7.763 0 00-2.872-.547c-1.588 0-2.897.254-3.925.761-.521.248-.86.528-1.016.84.742.287 1.113.931 1.113 1.934 0 .482-.13.905-.39 1.27-.404.56-.983.84-1.739.84-.599 0-1.1-.229-1.504-.684-.429-.495-.644-1.127-.644-1.895 0-1.263.742-2.37 2.227-3.32 1.666-1.081 3.665-1.621 5.996-1.621 2.304 0 4.231.501 5.781 1.504 1.862 1.21 2.793 3.574 2.793 7.09v9.003c0 1.85.416 2.774 1.25 2.774.742 0 1.432-.67 2.07-2.012l1.152 1.484c-.924 2.188-2.187 3.282-3.789 3.282-2.096 0-3.229-1.4-3.398-4.2-1.628 2.8-4.44 4.2-8.438 4.2-2.278 0-4.062-.814-5.351-2.442-.886-1.133-1.328-2.48-1.328-4.043 0-2.487 1.243-4.433 3.73-5.84 2.409-1.38 5.632-2.168 9.668-2.363l1.68-.078zm0 2.012l-1.484.078c-3.412.182-6.036.781-7.872 1.797-1.757.963-2.636 2.376-2.636 4.238 0 1.211.325 2.174.976 2.89.755.847 1.882 1.27 3.379 1.27 1.472 0 2.884-.351 4.238-1.055 1.433-.742 2.435-1.666 3.008-2.773.261-.52.391-1.035.391-1.543V19.97z" fill="#000"/></svg>