<svg width="286" height="39" viewBox="0 0 286 39" fill="none" xmlns="http://www.w3.org/2000/svg"><path d="M.908.012h38.208v1.782c-2.213.114-3.613.431-4.199.952-.505.456-.757 1.457-.757 3.003v26.49c0 1.578.252 2.579.757 3.002.57.505 1.97.822 4.2.952V38H25.614v-1.807c2.377-.146 3.817-.488 4.322-1.025.455-.472.683-1.449.683-2.93V6.164c0-1.481-.268-2.466-.806-2.954-.504-.472-1.725-.708-3.662-.708H13.848c-1.92 0-3.134.236-3.638.708-.537.472-.806 1.457-.806 2.954v26.074c0 1.807.383 2.906 1.148 3.296.618.31 1.904.53 3.857.66V38H.91v-1.807c2.294-.13 3.718-.472 4.272-1.025.455-.423.683-1.4.683-2.93V5.75c0-1.14-.097-1.912-.293-2.32-.309-.715-1.041-1.18-2.197-1.39-.553-.099-1.375-.18-2.466-.245V.012zm59.155 10.986H85.04v1.807c-2.002 0-3.288.309-3.857.927-.489.505-.733 1.514-.733 3.028v15.43c0 1.578.269 2.612.806 3.1.586.553 1.847.855 3.784.903V38H72.37v-1.807c2.05-.048 3.36-.374 3.93-.976.504-.537.757-1.546.757-3.027V17.102c0-1.514-.253-2.515-.757-3.003-.472-.472-1.538-.708-3.198-.708h-2.54c-1.383 0-2.327.276-2.832.83-.439.488-.667 1.448-.683 2.88-.033 6.625-.692 11.963-1.978 16.016-1.237 3.923-3.678 5.884-7.324 5.884-1.53 0-2.88-.39-4.053-1.172-1.888-1.253-2.832-2.962-2.832-5.127 0-.683.171-1.286.513-1.806.57-.863 1.375-1.294 2.417-1.294.44 0 .855.105 1.245.317 1.01.57 1.514 1.465 1.514 2.686 0 1.4-.7 2.294-2.1 2.685.57.814 1.669 1.22 3.296 1.22 1.628 0 2.848-.585 3.662-1.757.668-.977 1.262-2.702 1.782-5.176.847-4.053 1.27-8.3 1.27-12.744 0-1.693-.293-2.775-.879-3.247-.602-.505-1.774-.765-3.516-.781v-1.807zm54.419-9.814c.424 0 .83.09 1.221.268 1.107.521 1.66 1.4 1.66 2.637 0 .797-.285 1.481-.854 2.05-.57.57-1.262.855-2.075.855-.489 0-.944-.122-1.368-.366-1.009-.553-1.513-1.408-1.513-2.564 0-.846.317-1.554.952-2.124.537-.504 1.196-.756 1.977-.756zm11.084 0c.424 0 .83.09 1.221.268 1.107.537 1.66 1.416 1.66 2.637 0 .797-.285 1.481-.854 2.05-.57.57-1.262.855-2.075.855-.489 0-.944-.122-1.368-.366-1.009-.553-1.513-1.408-1.513-2.564 0-.846.317-1.554.952-2.124.537-.504 1.196-.756 1.977-.756zM110.747 24.23v.39c0 2.62.521 4.883 1.563 6.787 1.741 3.19 4.419 4.785 8.032 4.785 4.004 0 7.34-2.05 10.01-6.152l1.586 1.587C129.106 36.543 125.135 39 120.024 39c-4.492 0-7.967-1.685-10.424-5.054-1.84-2.523-2.759-5.64-2.759-9.35 0-3.825 1.025-7.08 3.076-9.766 2.49-3.223 5.77-4.834 9.839-4.834 2.848 0 5.33.806 7.446 2.417 2.376 1.79 3.923 4.24 4.639 7.349.26 1.123.39 2.278.39 3.466v1.002h-21.484zm17.285-2.393c-.13-2.767-.74-4.867-1.831-6.299-1.611-2.132-3.743-3.198-6.396-3.198-2.491 0-4.615 1.066-6.372 3.198-1.4 1.693-2.263 3.792-2.588 6.299h17.187zm26.074-10.84h12.647v1.807c-2.035.016-3.329.325-3.882.927-.488.505-.732 1.506-.732 3.003v5.713h15.722v-5.713c0-1.643-.293-2.701-.879-3.173-.634-.505-1.879-.757-3.735-.757v-1.807h12.647v1.807c-2.019.016-3.313.325-3.882.927-.472.505-.708 1.506-.708 3.003V32.19c0 1.595.268 2.628.805 3.1.619.553 1.88.855 3.785.903V38h-12.647v-1.807c2.051-.032 3.345-.358 3.882-.976.488-.537.732-1.546.732-3.027v-7.35h-15.722v7.35c0 1.595.293 2.66.879 3.198.569.488 1.814.757 3.735.805V38h-12.647v-1.807c1.921-.048 3.182-.35 3.785-.903.537-.472.805-1.505.805-3.1V16.735c0-1.643-.293-2.701-.879-3.173-.634-.489-1.871-.741-3.711-.757v-1.807zm63.648 0v1.807c-2.067.016-3.386.325-3.955.927-.505.538-.757 1.547-.757 3.028v5.249c3.092-.033 5.55-.53 7.373-1.49 2.018-1.041 3.532-2.718 4.541-5.029 1.546-3.564 3.752-5.346 6.616-5.346.668 0 1.245.154 1.734.463.927.554 1.391 1.376 1.391 2.466 0 1.123-.439 1.961-1.318 2.515-.342.212-.749.317-1.221.317-1.09 0-1.847-.423-2.27-1.27a3.041 3.041 0 01-.244-1.147c-.863.147-1.693 1.172-2.491 3.076-1.009 2.41-2.498 4.224-4.467 5.445l8.862 11.084c.862 1.09 1.709 1.863 2.539 2.32.781.406 1.798.666 3.052.78V38h-12.94v-1.807c2.588-.081 3.882-.447 3.882-1.098 0-.44-.195-.92-.586-1.44l-7.593-10.06c-1.969.603-4.256.904-6.86.904v7.69c0 1.596.309 2.662.928 3.199.586.488 1.847.757 3.784.805V38h-12.695v-1.807c1.985-.048 3.247-.35 3.784-.903.537-.52.805-1.554.805-3.1V16.76c0-1.547-.268-2.588-.805-3.125-.554-.537-1.815-.814-3.784-.83v-1.807h12.695zm58.813 9.448v-.757c0-2.376-.52-4.117-1.562-5.224-.537-.57-1.294-1.05-2.271-1.44a9.696 9.696 0 00-3.588-.684c-1.986 0-3.622.317-4.908.952-.651.31-1.074.66-1.269 1.05.927.358 1.391 1.164 1.391 2.417 0 .602-.162 1.131-.488 1.587-.504.7-1.229 1.05-2.173 1.05-.748 0-1.375-.285-1.88-.855-.537-.619-.805-1.408-.805-2.368 0-1.579.927-2.962 2.783-4.15 2.083-1.351 4.582-2.027 7.495-2.027 2.881 0 5.29.627 7.227 1.88 2.327 1.514 3.491 4.468 3.491 8.862v11.255c0 2.311.521 3.467 1.562 3.467.928 0 1.791-.838 2.588-2.515l1.441 1.856c-1.156 2.734-2.735 4.101-4.737 4.101-2.62 0-4.036-1.75-4.248-5.249-2.034 3.5-5.55 5.25-10.547 5.25-2.848 0-5.078-1.018-6.689-3.052-1.107-1.416-1.66-3.101-1.66-5.054 0-3.109 1.554-5.542 4.663-7.3 3.011-1.725 7.039-2.71 12.085-2.954l2.099-.098zm0 2.515l-1.855.098c-4.264.227-7.544.976-9.839 2.246-2.197 1.204-3.296 2.97-3.296 5.297 0 1.514.407 2.719 1.221 3.614.944 1.058 2.352 1.587 4.223 1.587 1.84 0 3.606-.44 5.298-1.319 1.791-.927 3.044-2.083 3.76-3.466.326-.652.488-1.294.488-1.93v-6.127z" fill="#000"/></svg>