<svg width="92" height="13" viewBox="0 0 92 13" fill="none" xmlns="http://www.w3.org/2000/svg"><path d="M.643 1.2h12.714v.722c-.807.006-1.324.127-1.552.361-.19.202-.284.606-.284 1.211v6.182c0 .638.108 1.051.323 1.24.247.221.752.342 1.513.361V12H8.3v-.723c.82-.013 1.338-.143 1.553-.39.195-.215.293-.619.293-1.211V3.377c0-.814-.407-1.22-1.221-1.22H5.076c-.814 0-1.22.406-1.22 1.22v6.299c0 .638.117 1.064.351 1.28.221.194.72.302 1.494.321V12H.643v-.723c.807-.02 1.324-.15 1.552-.39.19-.202.284-.606.284-1.211V3.494c0-.657-.118-1.08-.352-1.27-.254-.201-.749-.302-1.484-.302v-.723zM27.02.798c1.744 0 3.105.683 4.082 2.05.735 1.03 1.103 2.289 1.103 3.78 0 1.517-.361 2.78-1.084 3.789C30.171 11.74 28.797 12.4 27 12.4c-1.543 0-2.787-.504-3.73-1.513-.977-1.048-1.465-2.468-1.465-4.258 0-1.68.455-3.05 1.367-4.111.976-1.146 2.259-1.72 3.848-1.72zm-.04.957c-.885 0-1.643.325-2.275.976-.866.88-1.299 2.162-1.299 3.848 0 1.36.362 2.516 1.084 3.467.703.93 1.543 1.396 2.52 1.396.892 0 1.683-.406 2.373-1.22.814-.97 1.22-2.188 1.22-3.653 0-1.354-.296-2.467-.888-3.34-.67-.983-1.582-1.474-2.735-1.474zm24.922 7.588c-1.048 2.038-2.607 3.056-4.677 3.056-1.133 0-2.133-.3-2.998-.898-1.537-1.055-2.305-2.695-2.305-4.922 0-1.471.368-2.705 1.103-3.701.665-.905 1.55-1.52 2.657-1.846A6.085 6.085 0 0147.362.8c1.184 0 2.157.303 2.92.908.683.534 1.025 1.11 1.025 1.729 0 .227-.046.442-.137.644-.195.41-.524.615-.986.615-.384 0-.677-.146-.88-.44a.998.998 0 01-.185-.605c0-.468.16-.784.479-.947-.41-.631-1.15-.947-2.217-.947-1.185 0-2.149.498-2.89 1.494-.645.872-.968 1.982-.968 3.33 0 .983.18 1.84.537 2.568.326.671.779 1.195 1.358 1.573.58.37 1.227.556 1.943.556 1.602 0 2.907-.859 3.916-2.578l.625.645zm11.123-8.145h9.99v.723c-.8 0-1.314.124-1.542.371-.196.202-.293.605-.293 1.21v6.173c0 .631.107 1.045.322 1.24.234.221.739.342 1.514.361V12h-5.069v-.723c.82-.02 1.345-.15 1.572-.39.202-.215.303-.619.303-1.211V3.64c0-.606-.1-1.006-.303-1.202-.188-.188-.615-.283-1.279-.283h-1.015c-.554 0-.931.11-1.133.332-.176.196-.267.58-.274 1.153-.013 2.65-.276 4.785-.79 6.406-.496 1.569-1.472 2.353-2.93 2.353-.612 0-1.153-.156-1.621-.468-.756-.502-1.133-1.185-1.133-2.051 0-.274.068-.514.205-.723.228-.345.55-.517.967-.517.175 0 .341.042.498.127.403.227.605.586.605 1.074 0 .56-.28.918-.84 1.074.228.325.668.488 1.319.488.65 0 1.139-.234 1.465-.703.266-.39.504-1.08.712-2.07.339-1.621.508-3.32.508-5.098 0-.677-.117-1.11-.351-1.299-.241-.201-.71-.306-1.407-.312v-.723zM83.3 6.492v.156c0 1.049.208 1.954.625 2.715.696 1.276 1.767 1.914 3.213 1.914 1.601 0 2.936-.82 4.004-2.46l.634.634c-1.132 1.966-2.721 2.95-4.765 2.95-1.797 0-3.187-.674-4.17-2.022-.736-1.01-1.104-2.256-1.104-3.74 0-1.53.41-2.832 1.23-3.907C83.964 1.443 85.276.8 86.903.8c1.14 0 2.132.322 2.979.967.95.716 1.569 1.696 1.855 2.94.105.448.157.91.157 1.386v.4h-8.594zm6.914-.957c-.052-1.107-.296-1.946-.732-2.52-.645-.852-1.498-1.279-2.56-1.279-.995 0-1.845.427-2.548 1.28-.56.677-.905 1.517-1.035 2.52h6.875z" fill="#fff"/></svg>