<svg width="50" height="580" viewBox="0 0 50 580" fill="none" xmlns="http://www.w3.org/2000/svg"><path d="M9.644 195.399h2.392l-1.05 11.011h4.956l1.05-11.011h2.393l-1.05 11.011h4.101v3.003h-4.345l-1.44 15.186h4.638v3.003h-4.907l-1.05 10.986h-2.393l1.05-10.986H9.033l-1.05 10.986H5.591l1.05-10.986H2.539v-3.003h4.346l1.465-15.186H3.687v-3.003h4.907l1.05-11.011zm1.098 14.014l-1.465 15.186h4.956l1.465-15.186h-4.956zm23.34 5.176h2.05c1.873 0 3.305-.863 4.298-2.588.846-1.465 1.27-3.345 1.27-5.64 0-1.595-.261-2.937-.782-4.028-.895-1.872-2.36-2.808-4.395-2.808-2.23 0-3.702.806-4.419 2.417 1.058.358 1.587 1.123 1.587 2.295 0 .456-.114.863-.341 1.221-.44.684-1.099 1.025-1.978 1.025-1.628 0-2.441-.944-2.441-2.832 0-1.627.626-3.068 1.88-4.321 1.53-1.53 3.45-2.295 5.761-2.295 2.686 0 4.842.977 6.47 2.93 1.432 1.709 2.148 3.865 2.148 6.47 0 5.127-2.164 8.243-6.494 9.35v.22c2.523.553 4.411 1.79 5.664 3.711 1.123 1.693 1.685 3.784 1.685 6.274s-.488 4.647-1.465 6.47c-1.611 2.995-4.2 4.492-7.764 4.492-2.132 0-3.955-.529-5.468-1.587-1.937-1.351-2.906-3.133-2.906-5.346 0-.928.244-1.644.733-2.149.472-.488 1.066-.732 1.782-.732.423 0 .822.122 1.196.366.765.504 1.148 1.237 1.148 2.197 0 1.221-.505 2.067-1.514 2.539.895 1.481 2.482 2.222 4.76 2.222 2.003 0 3.525-.936 4.566-2.808.847-1.497 1.27-3.393 1.27-5.688 0-2.751-.627-4.924-1.88-6.519-1.107-1.432-2.563-2.148-4.37-2.148h-2.051v-2.71z" fill="#000"/><path d="M9.644 99.4h2.392l-1.05 11.01h4.956l1.05-11.01h2.393l-1.05 11.01h4.101v3.003h-4.345l-1.44 15.186h4.638v3.003h-4.907l-1.05 10.986h-2.393l1.05-10.986H9.033l-1.05 10.986H5.591l1.05-10.986H2.539v-3.003h4.346l1.465-15.186H3.687v-3.003h4.907l1.05-11.01zm1.098 14.013l-1.465 15.186h4.956l1.465-15.186h-4.956zM28.76 140v-2.905c.748-3.109 1.652-5.64 2.71-7.593.797-1.481 2.132-3.337 4.004-5.566l.341-.391 1.05-1.196c1.725-1.986 2.922-3.711 3.59-5.176.894-2.018 1.342-4.191 1.342-6.519 0-2.083-.326-3.678-.977-4.785-.911-1.562-2.319-2.344-4.223-2.344-1.058 0-1.994.285-2.808.855-.732.504-1.212 1.196-1.44 2.075 1.139.635 1.709 1.473 1.709 2.515 0 .602-.13 1.131-.391 1.587-.456.732-1.131 1.098-2.026 1.098-.896 0-1.595-.382-2.1-1.147-.326-.505-.488-1.148-.488-1.929 0-1.546.44-2.954 1.318-4.224 1.514-2.213 3.67-3.32 6.47-3.32 2.848 0 5.07.985 6.665 2.954 1.4 1.726 2.1 4.004 2.1 6.836 0 3.19-.823 5.99-2.466 8.399-.912 1.318-2.27 2.84-4.078 4.565l-1 .952c-3.272 3.109-5.453 6.893-6.543 11.353h8.544c1.644 0 2.808-.48 3.492-1.441.52-.732.952-2.221 1.294-4.467h1.562L45.654 140H28.76z" fill="#B40000"/><path d="M9.644 3.4h2.392l-1.05 11.01h4.956l1.05-11.01h2.393l-1.05 11.01h4.101v3.003h-4.345L16.65 32.6h4.638v3.003h-4.907l-1.05 10.986h-2.393l1.05-10.986H9.033l-1.05 10.986H5.591l1.05-10.986H2.539v-3.003h4.346L8.35 17.413H3.687V14.41h4.907L9.644 3.4zm1.098 14.013L9.277 32.6h4.956l1.465-15.186h-4.956zm21.314-8.52V7.11c2.946-.374 5.411-1.18 7.397-2.417v33.96c0 1.221.293 2.108.879 2.662.456.439 1.481.732 3.076.878V44H32.105v-1.807c1.676-.13 2.783-.463 3.32-1 .488-.489.732-1.335.732-2.54V11.407c0-1.14-.09-1.847-.268-2.124-.147-.26-.562-.39-1.245-.39h-2.588zM9.644 291.399h2.392l-1.05 11.011h4.956l1.05-11.011h2.393l-1.05 11.011h4.101v3.003h-4.345l-1.44 15.186h4.638v3.003h-4.907l-1.05 10.986h-2.393l1.05-10.986H9.033l-1.05 10.986H5.591l1.05-10.986H2.539v-3.003h4.346l1.465-15.186H3.687v-3.003h4.907l1.05-11.011zm1.098 14.014l-1.465 15.186h4.956l1.465-15.186h-4.956zm29.346-12.158h2.856v26.001h5.298v2.954h-5.298v5.054c0 1.058.253 1.782.757 2.173.407.325 1.27.577 2.588.756V332H36.182v-1.807c1.416-.13 2.368-.374 2.856-.732.505-.391.757-1.123.757-2.197v-5.054H26.538v-2.564l13.55-26.391zm-.293 5.493L29.59 319.256h10.205v-20.508zM9.644 387.399h2.392l-1.05 11.011h4.956l1.05-11.011h2.393l-1.05 11.011h4.101v3.003h-4.345l-1.44 15.186h4.638v3.003h-4.907l-1.05 10.986h-2.393l1.05-10.986H9.033l-1.05 10.986H5.591l1.05-10.986H2.539v-3.003h4.346l1.465-15.186H3.687v-3.003h4.907l1.05-11.011zm1.098 14.014l-1.465 15.186h4.956l1.465-15.186h-4.956zm20.117-11.401h14.258l-.659 4.004H33.057l-1.001 12.133c1.334-1.953 3.23-2.929 5.688-2.929 2.62 0 4.81 1.245 6.568 3.735 1.53 2.165 2.294 5.078 2.294 8.74s-.78 6.73-2.343 9.204c-1.71 2.702-4.159 4.053-7.349 4.053-2.441 0-4.443-.724-6.006-2.173-1.497-1.399-2.246-2.994-2.246-4.785 0-.911.26-1.636.781-2.173.472-.472 1.066-.708 1.783-.708.797 0 1.456.326 1.977.977.374.472.562 1.025.562 1.66 0 1.139-.57 1.937-1.71 2.393.261.537.798 1.058 1.612 1.562.83.505 1.823.757 2.978.757 1.758 0 3.207-.879 4.346-2.637 1.302-2.018 1.953-4.752 1.953-8.203 0-3.174-.57-5.591-1.709-7.251-1.041-1.53-2.392-2.295-4.052-2.295-2.425 0-4.362 1.294-5.81 3.882l-2.003-.806 1.49-19.14zM9.644 483.399h2.392l-1.05 11.011h4.956l1.05-11.011h2.393l-1.05 11.011h4.101v3.003h-4.345l-1.44 15.186h4.638v3.003h-4.907l-1.05 10.986h-2.393l1.05-10.986H9.033l-1.05 10.986H5.591l1.05-10.986H2.539v-3.003h4.346l1.465-15.186H3.687v-3.003h4.907l1.05-11.011zm1.098 14.014l-1.465 15.186h4.956l1.465-15.186h-4.956zm21.46 7.227c.586-1.254 1.343-2.23 2.27-2.93 1.172-.911 2.45-1.367 3.834-1.367 2.23 0 4.126 1.164 5.688 3.491 1.465 2.197 2.197 5.135 2.197 8.813 0 2.946-.504 5.461-1.513 7.544-1.563 3.174-3.866 4.761-6.91 4.761-3.255 0-5.68-1.806-7.275-5.42-1.334-3.011-2.002-7.112-2.002-12.304 0-6.771 1.018-12.289 3.052-16.553 1.79-3.76 4.248-5.64 7.373-5.64 1.856 0 3.426.627 4.712 1.88 1.074 1.058 1.611 2.287 1.611 3.687 0 .683-.138 1.245-.415 1.684-.423.7-1.058 1.05-1.904 1.05-.814 0-1.457-.334-1.929-1.001a2.36 2.36 0 01-.44-1.416c0-.977.383-1.717 1.148-2.222-.472-.781-1.326-1.172-2.563-1.172-2.035 0-3.72 1.555-5.054 4.663-1.335 3.125-2.035 7.276-2.1 12.452h.22zm5.567-1.612c-.96 0-1.921.497-2.881 1.49-1.774 1.79-2.661 4.296-2.661 7.519 0 3.141.561 5.705 1.684 7.691 1.026 1.822 2.295 2.734 3.809 2.734 1.448 0 2.628-.903 3.54-2.71.846-1.709 1.27-4.028 1.27-6.958 0-3.662-.432-6.144-1.295-7.446-1.025-1.547-2.18-2.32-3.466-2.32z" fill="#000"/></svg>