<svg width="226" height="31" viewBox="0 0 226 31" fill="none" xmlns="http://www.w3.org/2000/svg"><path d="M.285 8.398h25.43v1.446c-1.615.013-2.65.254-3.106.722-.377.404-.566 1.211-.566 2.422v12.364c0 1.276.215 2.102.645 2.48.494.443 1.503.684 3.027.723V30H15.598v-1.445c1.64-.026 2.675-.287 3.105-.782.39-.43.586-1.236.586-2.421V12.754c0-1.628-.814-2.441-2.441-2.441H9.152c-1.627 0-2.441.813-2.441 2.44v12.599c0 1.276.234 2.128.703 2.558.443.39 1.439.606 2.988.645V30H.285v-1.445c1.615-.04 2.65-.3 3.106-.782.377-.403.566-1.21.566-2.421V12.988c0-1.315-.234-2.161-.703-2.539-.508-.403-1.497-.605-2.969-.605V8.398zm44.766 0h19.98v1.446c-1.601 0-2.63.247-3.086.742-.39.404-.586 1.21-.586 2.422v12.344c0 1.263.215 2.09.645 2.48.469.443 1.478.684 3.027.723V30H54.894v-1.445c1.641-.04 2.69-.3 3.145-.782.404-.43.605-1.236.605-2.421v-12.07c0-1.212-.201-2.012-.605-2.403-.378-.378-1.23-.566-2.559-.566h-2.03c-1.108 0-1.863.22-2.266.664-.352.39-.534 1.158-.547 2.304-.026 5.3-.554 9.57-1.582 12.813-.99 3.138-2.943 4.707-5.86 4.707-1.224 0-2.304-.313-3.242-.938-1.51-1.002-2.266-2.37-2.266-4.101 0-.547.137-1.029.41-1.446.456-.69 1.1-1.035 1.934-1.035.352 0 .684.085.996.254.808.456 1.211 1.172 1.211 2.149 0 1.12-.56 1.835-1.68 2.148.456.651 1.335.977 2.637.977s2.279-.47 2.93-1.407c.534-.78 1.01-2.161 1.426-4.14.677-3.242 1.015-6.64 1.015-10.196 0-1.354-.234-2.22-.703-2.597-.481-.404-1.419-.612-2.812-.625V8.398zM88.586.547c.338 0 .664.071.977.215.885.416 1.328 1.12 1.328 2.11 0 .637-.228 1.184-.684 1.64a2.26 2.26 0 01-1.66.683c-.39 0-.755-.097-1.094-.293-.807-.442-1.21-1.126-1.21-2.05 0-.678.253-1.244.76-1.7.43-.403.958-.605 1.583-.605zm8.867 0c.339 0 .664.071.977.215.885.43 1.328 1.133 1.328 2.11 0 .637-.228 1.184-.684 1.64a2.26 2.26 0 01-1.66.683c-.39 0-.755-.097-1.094-.293-.807-.442-1.21-1.126-1.21-2.05 0-.678.253-1.244.761-1.7.43-.403.957-.605 1.582-.605zM85.598 18.984v.313c0 2.096.416 3.906 1.25 5.43 1.393 2.552 3.535 3.828 6.425 3.828 3.204 0 5.873-1.64 8.008-4.922l1.27 1.27c-2.266 3.932-5.443 5.898-9.532 5.898-3.593 0-6.373-1.348-8.34-4.043-1.47-2.018-2.206-4.512-2.206-7.48 0-3.06.82-5.665 2.46-7.813 1.993-2.578 4.616-3.867 7.872-3.867 2.278 0 4.264.644 5.957 1.933 1.901 1.432 3.138 3.392 3.711 5.88.208.898.312 1.822.312 2.773v.8H85.598zm13.828-1.914c-.104-2.213-.593-3.893-1.465-5.039-1.29-1.706-2.995-2.558-5.117-2.558-1.992 0-3.692.852-5.098 2.558-1.12 1.354-1.81 3.034-2.07 5.04h13.75zm20.859-8.672h10.117v1.446c-1.627.013-2.662.26-3.105.742-.391.404-.586 1.204-.586 2.402v4.57h12.578v-4.57c0-1.315-.234-2.161-.703-2.539-.508-.403-1.504-.605-2.988-.605V8.398h10.117v1.446c-1.615.013-2.65.26-3.106.742-.377.404-.566 1.204-.566 2.402v12.364c0 1.276.215 2.102.645 2.48.494.443 1.503.684 3.027.723V30h-10.117v-1.445c1.64-.026 2.675-.287 3.105-.782.391-.43.586-1.236.586-2.421v-5.88h-12.578v5.88c0 1.276.234 2.128.703 2.558.456.39 1.452.606 2.988.645V30h-10.117v-1.445c1.537-.04 2.546-.28 3.027-.723.43-.378.645-1.204.645-2.48V12.988c0-1.315-.234-2.161-.703-2.539-.508-.39-1.497-.592-2.969-.605V8.398zm50.918 0v1.446c-1.654.013-2.708.26-3.164.742-.404.43-.605 1.237-.605 2.422v4.199c2.474-.026 4.44-.423 5.898-1.191 1.615-.834 2.826-2.175 3.633-4.024 1.237-2.851 3.001-4.277 5.293-4.277.534 0 .996.124 1.387.37.742.444 1.113 1.101 1.113 1.974 0 .898-.352 1.569-1.055 2.011-.273.17-.599.254-.976.254-.873 0-1.478-.338-1.817-1.015a2.448 2.448 0 01-.195-.918c-.69.117-1.354.937-1.992 2.46-.808 1.928-1.999 3.38-3.575 4.356l7.09 8.867c.69.873 1.367 1.491 2.032 1.856.625.325 1.438.534 2.441.625V30h-10.352v-1.445c2.071-.065 3.106-.358 3.106-.88 0-.35-.156-.735-.469-1.152l-6.074-8.046c-1.576.481-3.405.722-5.488.722v6.153c0 1.276.247 2.128.742 2.558.469.39 1.478.606 3.027.645V30h-10.156v-1.445c1.588-.04 2.598-.28 3.027-.723.43-.417.645-1.244.645-2.48V13.008c0-1.237-.215-2.07-.645-2.5-.442-.43-1.452-.651-3.027-.664V8.398h10.156zm47.051 7.559v-.605c0-1.902-.417-3.295-1.25-4.18-.43-.456-1.035-.84-1.816-1.152a7.764 7.764 0 00-2.872-.547c-1.588 0-2.897.254-3.925.761-.521.248-.86.528-1.016.84.742.287 1.113.931 1.113 1.934 0 .482-.13.905-.39 1.27-.404.56-.983.84-1.739.84-.599 0-1.1-.229-1.504-.684-.429-.495-.644-1.127-.644-1.895 0-1.263.742-2.37 2.227-3.32 1.666-1.081 3.665-1.621 5.996-1.621 2.304 0 4.231.501 5.781 1.504 1.862 1.21 2.793 3.574 2.793 7.09v9.003c0 1.85.416 2.774 1.25 2.774.742 0 1.432-.67 2.07-2.012l1.152 1.484c-.924 2.188-2.187 3.282-3.789 3.282-2.096 0-3.229-1.4-3.398-4.2-1.628 2.8-4.44 4.2-8.438 4.2-2.278 0-4.062-.814-5.351-2.442-.886-1.133-1.328-2.48-1.328-4.043 0-2.487 1.243-4.433 3.73-5.84 2.409-1.38 5.632-2.168 9.668-2.363l1.68-.078zm0 2.012l-1.484.078c-3.412.182-6.036.781-7.872 1.797-1.757.963-2.636 2.376-2.636 4.238 0 1.211.325 2.174.976 2.89.755.847 1.882 1.27 3.379 1.27 1.472 0 2.884-.351 4.238-1.055 1.433-.742 2.435-1.666 3.008-2.773.261-.52.391-1.035.391-1.543V17.97z" fill="#000"/></svg>