<svg width="236" height="46" viewBox="0 0 236 46" fill="none" xmlns="http://www.w3.org/2000/svg"><path d="M.347 2.012h13.5v1.806c-2.31.098-3.743.44-4.296 1.026-.44.472-.66 1.44-.66 2.905v26.123c0 1.53.294 2.531.88 3.003.504.423 1.676.635 3.515.635h11.45c1.953 0 3.199-.26 3.736-.782.488-.455.732-1.407.732-2.856V7.75c0-1.774-.39-2.865-1.172-3.271-.618-.342-1.896-.562-3.833-.66V2.012h13.477v1.806c-2.295.098-3.72.44-4.273 1.026-.44.472-.659 1.44-.659 2.905v26.123c0 1.465.35 2.409 1.05 2.832.798.488 2.393.757 4.785.806l.757 8.447h-1.758c-.228-2.1-1.09-3.678-2.588-4.736C33.867 40.407 32.353 40 30.45 40H.346v-1.782c2.18-.147 3.58-.48 4.199-1.001.504-.44.757-1.424.757-2.954V7.749c0-1.546-.253-2.539-.757-2.978-.602-.538-2.002-.855-4.2-.953V2.012zm53.76 10.986h12.646v1.807c-2.035.016-3.328.325-3.882.927-.488.505-.732 1.514-.732 3.028v13.037L77.91 17.393c-.016-.977-.317-1.628-.903-1.954-.749-.423-2.002-.634-3.76-.634v-1.807h12.647v1.807c-2.019.016-3.313.325-3.882.927-.472.505-.708 1.514-.708 3.028v15.43c0 1.595.293 2.66.879 3.198.553.488 1.79.757 3.71.805V40H73.248v-1.807c2.002-.032 3.288-.333 3.858-.903.537-.52.805-1.554.805-3.1v-13.6L62.14 34.947c0 1.254.293 2.092.879 2.515.618.44 1.863.684 3.735.732V40H54.106v-1.807c1.921-.048 3.182-.35 3.785-.903.537-.472.805-1.505.805-3.1V18.76c0-1.66-.293-2.727-.879-3.199-.634-.488-1.871-.74-3.71-.756v-1.807zm59.643 32.959V44.15c2.083-.032 3.402-.341 3.955-.927.505-.538.757-1.547.757-3.028v-2.832c-1.384.895-2.938 1.343-4.663 1.343-2.962 0-5.371-1.383-7.227-4.15-1.709-2.523-2.563-5.705-2.563-9.546 0-3.662.993-6.755 2.978-9.278 1.953-2.49 4.265-3.735 6.934-3.735 1.269 0 2.783.586 4.541 1.758V7.358c0-1.497-.269-2.433-.806-2.807-.537-.39-1.749-.643-3.637-.757V1.987c3.092-.016 5.704-.35 7.836-1v12.768c1.596-1.172 3.085-1.758 4.468-1.758 2.572 0 4.81 1.156 6.714 3.467 2.116 2.555 3.174 5.753 3.174 9.595 0 3.662-.798 6.738-2.393 9.228-1.855 2.946-4.329 4.42-7.422 4.42-1.757 0-3.271-.449-4.541-1.344v2.832c0 1.595.293 2.661.879 3.199.537.472 1.774.724 3.711.756v1.807H113.75zm4.712-29.468c-1.302-1.465-2.751-2.197-4.346-2.197-1.513 0-2.832.806-3.955 2.417-1.432 2.05-2.148 4.826-2.148 8.325 0 3.142.48 5.68 1.44 7.617 1.172 2.344 2.857 3.516 5.054 3.516 1.562 0 2.881-.57 3.955-1.709V16.489zm3.393 17.969c1.01 1.14 2.287 1.709 3.833 1.709 2.165 0 3.842-1.123 5.03-3.37 1.025-1.952 1.538-4.556 1.538-7.812 0-3.287-.667-5.957-2.002-8.008-1.156-1.79-2.507-2.685-4.053-2.685-1.676 0-3.125.732-4.346 2.197v17.969zm32.789 11.499V44.15c2.067-.032 3.377-.341 3.93-.927.521-.538.781-1.547.781-3.028v-21.85c0-1.384-.301-2.295-.903-2.735-.57-.423-1.758-.691-3.564-.805v-1.807c3.32-.049 5.965-.382 7.934-1v4.662c.7-1.286 1.734-2.335 3.101-3.15a10.583 10.583 0 015.517-1.513c3.646 0 6.617 1.253 8.912 3.76 2.164 2.344 3.247 5.412 3.247 9.204 0 4.59-1.18 8.048-3.54 10.376-2.116 2.116-5.095 3.174-8.936 3.174-2.295 0-4.289-.594-5.981-1.783a8.588 8.588 0 01-2.32-2.514v5.981c0 1.563.301 2.596.904 3.1.618.522 2.05.807 4.296.855v1.807h-13.378zm16.162-31.47c-2.051 0-3.89.928-5.518 2.783-1.676 1.889-2.515 4.411-2.515 7.569 0 2.832.35 5.037 1.05 6.616 1.319 3.044 3.727 4.566 7.227 4.566 3.271 0 5.656-1.44 7.153-4.322.944-1.823 1.416-4.093 1.416-6.811 0-2.572-.586-4.761-1.758-6.568-1.172-1.774-2.783-2.946-4.834-3.515a7.964 7.964 0 00-2.221-.318zm55.761 7.96v-.758c0-2.376-.52-4.117-1.562-5.224-.537-.57-1.294-1.05-2.271-1.44a9.696 9.696 0 00-3.588-.684c-1.986 0-3.622.317-4.908.952-.651.31-1.074.66-1.269 1.05.927.358 1.391 1.163 1.391 2.417 0 .602-.162 1.131-.488 1.587-.504.7-1.229 1.05-2.173 1.05-.748 0-1.375-.285-1.88-.855-.537-.619-.805-1.408-.805-2.368 0-1.579.927-2.962 2.783-4.15 2.083-1.351 4.582-2.027 7.495-2.027 2.881 0 5.29.627 7.227 1.88 2.327 1.514 3.491 4.468 3.491 8.862v11.255c0 2.311.521 3.467 1.562 3.467.928 0 1.791-.838 2.588-2.515l1.441 1.856c-1.156 2.734-2.735 4.101-4.737 4.101-2.62 0-4.036-1.75-4.248-5.249-2.034 3.5-5.55 5.25-10.547 5.25-2.848 0-5.078-1.018-6.689-3.052-1.107-1.416-1.66-3.101-1.66-5.054 0-3.109 1.554-5.542 4.663-7.3 3.011-1.725 7.039-2.71 12.085-2.954l2.099-.098zm0 2.514l-1.855.098c-4.264.227-7.544.976-9.839 2.246-2.197 1.204-3.296 2.97-3.296 5.297 0 1.514.407 2.719 1.221 3.614.944 1.058 2.352 1.587 4.223 1.587 1.84 0 3.606-.44 5.298-1.319 1.791-.927 3.044-2.083 3.76-3.466.326-.651.488-1.294.488-1.93v-6.127z" fill="#000"/></svg>