<svg width="523" height="26" viewBox="0 0 523 26" fill="none" xmlns="http://www.w3.org/2000/svg"><path d="M6.284 9.116C5.728 8.188 5.04 7.725 4.22 7.725c-.723 0-1.265.42-1.626 1.26-.352.84-.528 2.24-.528 4.204 0 1.962.176 3.359.528 4.189.361.83.903 1.245 1.626 1.245.82 0 1.509-.459 2.065-1.377v-8.13zm0 9.961c-.517.84-1.206 1.26-2.065 1.26-1.397 0-2.442-.615-3.135-1.846-.693-1.23-1.04-2.998-1.04-5.303 0-2.294.347-4.062 1.04-5.302.693-1.24 1.738-1.86 3.135-1.86.86 0 1.548.42 2.065 1.26V.883h2.022v6.401c.517-.84 1.206-1.26 2.065-1.26 1.397 0 2.441.62 3.135 1.86.693 1.241 1.04 3.009 1.04 5.303 0 2.305-.347 4.073-1.04 5.303-.694 1.23-1.738 1.846-3.135 1.846-.86 0-1.548-.42-2.065-1.26v6.387H6.284v-6.387zm2.022-1.83c.556.917 1.245 1.376 2.065 1.376.723 0 1.26-.415 1.611-1.245.362-.83.542-2.227.542-4.19 0-1.962-.18-3.364-.542-4.204-.351-.84-.888-1.26-1.61-1.26-.821 0-1.51.464-2.066 1.392v8.13zm22.544-4.03c0 1.065-.171 2.032-.513 2.901a6.212 6.212 0 01-1.45 2.241 6.742 6.742 0 01-2.256 1.45c-.879.352-1.86.528-2.945.528-1.064 0-2.036-.176-2.915-.527a6.906 6.906 0 01-2.27-1.45 6.482 6.482 0 01-1.45-2.242c-.332-.869-.498-1.836-.498-2.9 0-1.035.166-1.997.498-2.886.342-.898.825-1.66 1.45-2.285a6.674 6.674 0 012.27-1.48c.88-.36 1.851-.542 2.915-.542 1.084 0 2.066.181 2.945.542a6.52 6.52 0 012.256 1.48 6.144 6.144 0 011.45 2.285c.342.889.513 1.85.513 2.886zm-2.007 0c0-.78-.117-1.498-.352-2.152a4.927 4.927 0 00-1.01-1.744A4.753 4.753 0 0025.84 8.15c-.635-.283-1.353-.424-2.154-.424-.8 0-1.523.141-2.167.424a4.638 4.638 0 00-1.612 1.172 5.24 5.24 0 00-1.01 1.744 6.595 6.595 0 00-.337 2.153c0 .781.112 1.504.337 2.168.234.654.57 1.22 1.01 1.699.44.479.977.854 1.612 1.128.644.273 1.367.41 2.168.41.8 0 1.518-.137 2.153-.41a4.776 4.776 0 001.64-1.128 4.659 4.659 0 001.011-1.7 6.47 6.47 0 00.352-2.167zm18.032-.424h-1.714V8.062H41.06v10.224h3.076V20h-8.189v-1.714h3.091V8.062h-4.101v4.731h-1.714V6.348h13.652v6.445zm16.728.425c0 1.064-.17 2.031-.512 2.9a6.212 6.212 0 01-1.45 2.241 6.742 6.742 0 01-2.256 1.45c-.88.352-1.86.528-2.945.528-1.064 0-2.036-.176-2.915-.527a6.906 6.906 0 01-2.27-1.45 6.482 6.482 0 01-1.45-2.242c-.332-.869-.498-1.836-.498-2.9 0-1.035.166-1.997.498-2.886.342-.898.825-1.66 1.45-2.285a6.674 6.674 0 012.27-1.48c.88-.36 1.851-.542 2.915-.542 1.084 0 2.066.181 2.945.542a6.52 6.52 0 012.256 1.48 6.144 6.144 0 011.45 2.285c.342.889.512 1.85.512 2.886zm-2.006 0c0-.781-.117-1.5-.352-2.153a4.927 4.927 0 00-1.01-1.744 4.753 4.753 0 00-1.641-1.172c-.635-.283-1.353-.424-2.154-.424-.8 0-1.523.141-2.167.424a4.638 4.638 0 00-1.612 1.172 5.24 5.24 0 00-1.01 1.744 6.595 6.595 0 00-.338 2.153c0 .781.113 1.504.337 2.168.235.654.572 1.22 1.011 1.699.44.479.977.854 1.611 1.128.645.273 1.368.41 2.168.41.801 0 1.519-.137 2.154-.41a4.776 4.776 0 001.64-1.128 4.659 4.659 0 001.011-1.7 6.47 6.47 0 00.352-2.167zm5.097-6.87H79.63v1.714H68.7V20h-2.007V6.348zm29.312 6.84c0 1.065-.166 2.032-.498 2.9-.332.87-.801 1.622-1.406 2.257a6.257 6.257 0 01-2.168 1.465c-.85.351-1.802.527-2.857.527a5.813 5.813 0 01-2.11-.396 6.335 6.335 0 01-1.889-1.171v6.694h-2.007V6.348h2.007v1.26c1.24-1.055 2.573-1.583 4-1.583 1.054 0 2.006.176 2.856.528.85.342 1.572.835 2.168 1.48a6.624 6.624 0 011.406 2.284c.332.88.498 1.836.498 2.871zm-2.007 0a6.91 6.91 0 00-.322-2.138 4.763 4.763 0 00-.938-1.743 4.499 4.499 0 00-1.553-1.158c-.605-.283-1.308-.424-2.109-.424-.762 0-1.474.141-2.138.424-.655.284-1.275.743-1.86 1.377v7.325c.585.634 1.205 1.088 1.86 1.362.664.273 1.376.41 2.138.41.8 0 1.504-.142 2.11-.425a4.498 4.498 0 001.552-1.157c.42-.488.733-1.06.938-1.714a6.909 6.909 0 00.322-2.139zm4.702 3.12c0-.859.215-1.577.645-2.153a4.41 4.41 0 011.684-1.377c.703-.341 1.504-.586 2.403-.732a16.29 16.29 0 012.768-.234c.361 0 .684.004.967.014a21.356 21.356 0 011.611.117c.264.03.552.064.865.103v-.981c0-.665-.147-1.211-.44-1.641a3.153 3.153 0 00-1.055-1.01 4.24 4.24 0 00-1.318-.528 5.284 5.284 0 00-1.172-.161c-1.015 0-1.953.136-2.812.41-.86.273-1.66.64-2.403 1.098l-.908-1.508c.82-.498 1.738-.904 2.754-1.216 1.025-.322 2.148-.484 3.369-.484.742 0 1.47.098 2.183.293a5.824 5.824 0 011.933.88c.577.39 1.036.907 1.377 1.552.342.645.513 1.416.513 2.315V20h-2.021v-2.285c-.352.44-.752.825-1.202 1.157a6.935 6.935 0 01-1.391.82 8.518 8.518 0 01-1.465.47 5.965 5.965 0 01-1.392.175c-1.806 0-3.173-.347-4.101-1.04-.928-.694-1.392-1.69-1.392-2.988zm5.493 2.315c.84 0 1.592-.122 2.256-.366.674-.254 1.245-.567 1.714-.938.469-.37.83-.766 1.084-1.186.264-.42.396-.801.396-1.143v-1.289a14.4 14.4 0 00-1.89-.161 97.103 97.103 0 00-1.553-.015 14.6 14.6 0 00-2.095.147c-.664.098-1.245.259-1.743.483-.498.215-.898.498-1.201.85-.303.351-.454.786-.454 1.304 0 .576.278 1.108.835 1.596.566.479 1.45.718 2.651.718zm16.729-9.507c-.557-.928-1.245-1.391-2.066-1.391-.722 0-1.264.42-1.626 1.26-.351.84-.527 2.24-.527 4.204 0 1.962.176 3.359.527 4.189.362.83.904 1.245 1.626 1.245.821 0 1.509-.459 2.066-1.377v-8.13zm0 9.961c-.518.84-1.206 1.26-2.066 1.26-1.396 0-2.441-.615-3.134-1.846-.694-1.23-1.04-2.998-1.04-5.303 0-2.294.346-4.062 1.04-5.302.693-1.24 1.738-1.86 3.134-1.86.86 0 1.548.42 2.066 1.26V.883h2.021v6.401c.518-.84 1.206-1.26 2.066-1.26 1.396 0 2.441.62 3.135 1.86.693 1.241 1.04 3.009 1.04 5.303 0 2.305-.347 4.073-1.04 5.303-.694 1.23-1.739 1.846-3.135 1.846-.86 0-1.548-.42-2.066-1.26v6.387h-2.021v-6.387zm2.021-1.83c.557.917 1.245 1.376 2.066 1.376.722 0 1.26-.415 1.611-1.245.361-.83.542-2.227.542-4.19 0-1.962-.181-3.364-.542-4.204-.351-.84-.889-1.26-1.611-1.26-.821 0-1.509.464-2.066 1.392v8.13zm9.258-10.9h2.007v11.016l7.383-11.015h2.827V20h-2.022V8.486L134.692 20h-2.49V6.348zm16.377 0h2.007v11.016l7.383-11.015h2.827V20h-2.022V8.486L151.069 20h-2.49V6.348zm45.176 11.075c-.576.898-1.367 1.611-2.373 2.139-.996.517-2.183.776-3.56.776-1.064 0-2.041-.176-2.929-.527a6.758 6.758 0 01-2.286-1.465 6.81 6.81 0 01-1.464-2.256c-.352-.87-.528-1.836-.528-2.9 0-1.036.161-1.993.484-2.872.322-.888.781-1.645 1.377-2.27a6.126 6.126 0 012.182-1.48c.869-.36 1.831-.542 2.886-.542.42 0 .85.05 1.289.147.439.098.855.249 1.245.454.391.195.742.435 1.055.718.312.273.547.6.703.981V6.348h1.802v5.464h-1.802c0-.606-.112-1.158-.337-1.656a3.868 3.868 0 00-.894-1.289 3.926 3.926 0 00-1.362-.835 4.646 4.646 0 00-1.699-.307c-.82 0-1.538.141-2.153.424a4.383 4.383 0 00-1.524 1.158 5.094 5.094 0 00-.937 1.728 7.173 7.173 0 00-.308 2.153c0 .782.117 1.504.352 2.168.244.655.59 1.221 1.04 1.7.459.478 1.006.859 1.64 1.142.645.283 1.367.425 2.168.425 1.016 0 1.919-.195 2.71-.586.791-.39 1.397-.918 1.817-1.582l1.406.967zm3.237.864c.459-.098.899-.361 1.319-.79.419-.43.786-1.026 1.098-1.788.313-.762.562-1.685.747-2.768.196-1.094.293-2.35.293-3.765V6.348h7.456v11.938h2.74v6.387h-1.802V20h-10.049v4.673h-1.802v-6.387zm5.464-9.111c0 1.133-.083 2.197-.249 3.193-.156.986-.366 1.87-.63 2.652-.254.78-.547 1.455-.879 2.021-.332.557-.659.972-.981 1.245h6.181V8.062h-3.442v1.113zm12.92 4.702c.146 1.445.674 2.598 1.582 3.457.908.86 2.09 1.289 3.545 1.289 1.025 0 1.938-.21 2.739-.63.801-.42 1.402-.942 1.802-1.567l1.406.967c-.683.957-1.499 1.689-2.446 2.197-.947.498-2.114.747-3.501.747-1.055 0-2.022-.176-2.9-.527a6.96 6.96 0 01-2.286-1.465 6.709 6.709 0 01-1.479-2.256c-.352-.87-.527-1.836-.527-2.9 0-1.036.156-1.988.468-2.857a6.61 6.61 0 011.377-2.27 6.186 6.186 0 012.198-1.495c.859-.36 1.821-.542 2.885-.542 1.162 0 2.178.196 3.047.586.869.391 1.592.933 2.168 1.626.586.684 1.016 1.504 1.289 2.461.283.957.425 2.017.425 3.179h-11.792zm9.668-1.714c-.225-1.494-.767-2.607-1.626-3.34-.859-.732-1.919-1.098-3.179-1.098-.644 0-1.24.107-1.787.322a4.347 4.347 0 00-1.45.893c-.42.391-.772.865-1.055 1.421a5.234 5.234 0 00-.542 1.802h9.639zm17.637-5.815V20h-2.022V8.062h-6.167v8.906c0 .537-.093 1.015-.278 1.435-.176.42-.415.772-.718 1.055a3.067 3.067 0 01-1.055.645c-.4.156-.82.234-1.259.234-.821 0-1.421-.122-1.802-.366l.395-1.597c.137.088.288.151.454.19.176.04.406.059.689.059 1.035 0 1.553-.552 1.553-1.655V6.348h10.21zm3.413 9.96c0-.859.215-1.577.644-2.153a4.408 4.408 0 011.685-1.377c.703-.341 1.504-.586 2.402-.732a16.293 16.293 0 012.769-.234c.361 0 .683.004.967.014a21.558 21.558 0 011.611.117c.264.03.552.064.864.103v-.981c0-.665-.146-1.211-.439-1.641a3.162 3.162 0 00-1.055-1.01 4.24 4.24 0 00-1.318-.528 5.284 5.284 0 00-1.172-.161c-1.016 0-1.953.136-2.813.41-.859.273-1.66.64-2.402 1.098l-.908-1.508c.82-.498 1.738-.904 2.754-1.216 1.025-.322 2.148-.484 3.369-.484a8.22 8.22 0 012.182.293 5.82 5.82 0 011.934.88c.576.39 1.035.907 1.377 1.552.342.645.513 1.416.513 2.315V20h-2.022v-2.285c-.351.44-.752.825-1.201 1.157a6.915 6.915 0 01-1.392.82 8.48 8.48 0 01-1.464.47 5.978 5.978 0 01-1.392.175c-1.807 0-3.174-.347-4.102-1.04-.927-.694-1.391-1.69-1.391-2.988zm5.493 2.315c.84 0 1.592-.122 2.256-.366.674-.254 1.245-.567 1.714-.938.468-.37.83-.766 1.084-1.186.263-.42.395-.801.395-1.143v-1.289a14.372 14.372 0 00-1.89-.161 96.988 96.988 0 00-1.552-.015c-.723 0-1.421.05-2.095.147-.664.098-1.245.259-1.743.483-.498.215-.899.498-1.201.85-.303.351-.454.786-.454 1.304 0 .576.278 1.108.835 1.596.566.479 1.45.718 2.651.718zM275.435 20h-2.022v-6.123h-8.188V20h-2.007V6.348h2.007v5.815h8.188V6.348h2.022V20zm15.087-13.652h2.007V20h-2.007V6.348zm-9.638 5.464h2.344c1.503 0 2.646.327 3.427.981.791.645 1.187 1.675 1.187 3.09 0 1.427-.396 2.472-1.187 3.136-.781.654-1.914.981-3.398.981h-4.38V6.348h2.007v5.464zm4.951 4.072c0-.752-.225-1.333-.674-1.743-.449-.41-1.084-.616-1.904-.616h-2.373v4.761h2.373c.82 0 1.455-.21 1.904-.63.449-.42.674-1.01.674-1.772zM324.565 20h-2.021v-6.123h-8.189V20h-2.006V6.348h2.006v5.815h8.189V6.348h2.021V20zm3.414-3.691c0-.86.214-1.578.644-2.154a4.408 4.408 0 011.685-1.377c.703-.341 1.504-.586 2.402-.732a16.293 16.293 0 012.769-.234c.361 0 .683.004.966.014a21.764 21.764 0 011.612.117c.263.03.551.064.864.103v-.981c0-.665-.147-1.211-.44-1.641a3.15 3.15 0 00-1.054-1.01c-.42-.255-.86-.43-1.319-.528a5.276 5.276 0 00-1.171-.161c-1.016 0-1.954.136-2.813.41-.859.273-1.66.64-2.402 1.098l-.909-1.508a12.215 12.215 0 012.754-1.216c1.026-.322 2.149-.484 3.37-.484a8.22 8.22 0 012.182.293 5.83 5.83 0 011.934.88c.576.39 1.035.907 1.377 1.552.341.645.512 1.416.512 2.315V20h-2.021v-2.285c-.352.44-.752.825-1.201 1.157a6.97 6.97 0 01-1.392.82 8.463 8.463 0 01-1.465.47 5.964 5.964 0 01-1.391.175c-1.807 0-3.174-.347-4.102-1.04-.928-.694-1.391-1.69-1.391-2.988zm5.493 2.314c.84 0 1.591-.122 2.256-.366.673-.254 1.245-.567 1.713-.938.469-.37.83-.766 1.084-1.186.264-.42.396-.801.396-1.143v-1.289a14.372 14.372 0 00-1.89-.161 96.988 96.988 0 00-1.552-.015c-.723 0-1.421.05-2.095.147-.664.098-1.245.259-1.743.483-.498.215-.899.498-1.202.85-.302.351-.454.786-.454 1.304 0 .576.279 1.108.835 1.596.567.479 1.451.718 2.652.718zM373.696 20h-2.49l-7.72-16.172V20h-2.007V.884h2.828l7.368 15.425V.884h2.021V20zm11.631-16.377h-2.724V.883h2.724v2.74zM388.052 20h-8.189v-1.714h3.091V8.062h-3.091V6.348h5.113v11.938h3.076V20zm19.087 0h-2.857l-5.581-6.123-2.461 2.256V20h-2.007V.884h2.007V13.7l7.779-7.353h2.871l-6.841 6.27 7.09 7.382zm16.757-6.782c0 1.064-.17 2.031-.512 2.9a6.222 6.222 0 01-1.45 2.241 6.742 6.742 0 01-2.256 1.45c-.879.352-1.861.528-2.945.528-1.064 0-2.036-.176-2.915-.527a6.906 6.906 0 01-2.27-1.45 6.47 6.47 0 01-1.45-2.242c-.332-.869-.498-1.836-.498-2.9 0-1.035.166-1.997.498-2.886.341-.898.825-1.66 1.45-2.285a6.674 6.674 0 012.27-1.48c.879-.36 1.851-.542 2.915-.542 1.084 0 2.066.181 2.945.542a6.52 6.52 0 012.256 1.48 6.154 6.154 0 011.45 2.285c.342.889.512 1.85.512 2.886zm-2.006 0c0-.781-.118-1.5-.352-2.153a4.922 4.922 0 00-1.011-1.744 4.753 4.753 0 00-1.64-1.172c-.635-.283-1.353-.424-2.154-.424-.8 0-1.523.141-2.168.424a4.649 4.649 0 00-1.611 1.172 5.258 5.258 0 00-1.011 1.744 6.61 6.61 0 00-.337 2.153c0 .781.113 1.504.337 2.168.235.654.572 1.22 1.011 1.699.44.479.977.854 1.611 1.128.645.273 1.368.41 2.168.41.801 0 1.519-.137 2.154-.41a4.776 4.776 0 001.64-1.128 4.654 4.654 0 001.011-1.7 6.48 6.48 0 00.352-2.167zM439.204 20h-2.021v-8.423c0-1.22-.264-2.168-.791-2.842-.528-.673-1.382-1.01-2.564-1.01-.742 0-1.416.17-2.021.512-.596.342-1.104.801-1.524 1.377a6.363 6.363 0 00-.967 1.963 8.16 8.16 0 00-.322 2.3V20h-2.007V6.348h2.007v3.427c.967-2.5 2.691-3.75 5.171-3.75 3.359 0 5.039 1.851 5.039 5.552V20zm34.102-9.536c0 1.28-.137 2.5-.41 3.662-.264 1.152-.694 2.168-1.29 3.047a6.36 6.36 0 01-2.285 2.065c-.927.508-2.05.762-3.369.762h-6.211V.884h6.211c1.299 0 2.412.263 3.34.79a6.455 6.455 0 012.285 2.096c.596.878 1.03 1.894 1.304 3.046.283 1.153.425 2.369.425 3.648zm-2.007 0c0-2.5-.474-4.434-1.421-5.8-.938-1.378-2.246-2.066-3.926-2.066h-4.204v15.688h4.204c1.68 0 2.988-.679 3.926-2.036.947-1.357 1.421-3.286 1.421-5.786zm17.842 3.12c0 .938-.176 1.816-.528 2.637a6.797 6.797 0 01-1.45 2.153 6.595 6.595 0 01-2.197 1.436c-.86.351-1.797.527-2.813.527a7.67 7.67 0 01-2.549-.41 6.422 6.422 0 01-2.065-1.172 5.808 5.808 0 01-1.421-1.875c-.361-.742-.581-1.592-.659-2.549l1.948-.308c.059.665.215 1.285.469 1.86.254.567.586 1.05.996 1.451.41.4.894.718 1.45.952a4.85 4.85 0 001.831.337c.782 0 1.475-.127 2.08-.38a4.595 4.595 0 001.568-1.085 4.864 4.864 0 00.981-1.611c.235-.615.352-1.27.352-1.963 0-.723-.117-1.392-.352-2.007a4.6 4.6 0 00-.967-1.611c-.419-.45-.937-.801-1.552-1.055-.606-.264-1.28-.395-2.022-.395-.781 0-1.533.166-2.256.498a5.232 5.232 0 00-1.86 1.42h-2.007V.885h11.968v1.714h-9.961v5.976a6.23 6.23 0 011.992-1.303 5.944 5.944 0 012.3-.47c.986 0 1.89.162 2.71.484.82.313 1.528.762 2.124 1.348.596.576 1.06 1.284 1.392 2.124.332.84.498 1.782.498 2.827zm4.16-3.12c0 1.416.171 2.744.512 3.984L502.764 5c-.469-.879-1.05-1.553-1.743-2.021-.684-.47-1.485-.704-2.403-.704-1.719 0-3.037.733-3.955 2.198-.908 1.455-1.362 3.452-1.362 5.99zm1.201 5.61c.967 1.719 2.339 2.578 4.116 2.578 1.68 0 2.984-.727 3.911-2.182.928-1.465 1.392-3.467 1.392-6.006a14.639 14.639 0 00-.498-3.809l-8.921 9.42zm-3.208-5.61c0-1.28.137-2.515.41-3.706.274-1.192.698-2.246 1.275-3.164a6.566 6.566 0 012.255-2.198c.938-.556 2.066-.834 3.384-.834 1.319 0 2.442.278 3.369.834.938.547 1.7 1.28 2.285 2.198.586.918 1.011 1.972 1.275 3.164.264 1.191.395 2.427.395 3.706 0 1.28-.131 2.514-.395 3.706-.264 1.191-.684 2.241-1.26 3.15a6.7 6.7 0 01-2.27 2.197c-.928.547-2.061.82-3.399.82s-2.475-.273-3.413-.82a6.875 6.875 0 01-2.27-2.198c-.577-.908-.992-1.958-1.246-3.15a17.144 17.144 0 01-.395-3.705zm18.384 0c0 1.416.171 2.744.512 3.984L519.141 5c-.469-.879-1.05-1.553-1.744-2.021-.683-.47-1.484-.704-2.402-.704-1.719 0-3.037.733-3.955 2.198-.908 1.455-1.362 3.452-1.362 5.99zm1.201 5.61c.967 1.719 2.339 2.578 4.116 2.578 1.68 0 2.984-.727 3.911-2.182.928-1.465 1.392-3.467 1.392-6.006a14.639 14.639 0 00-.498-3.809l-8.921 9.42zm-3.208-5.61c0-1.28.137-2.515.41-3.706.273-1.192.698-2.246 1.274-3.164a6.577 6.577 0 012.256-2.198c.938-.556 2.066-.834 3.384-.834s2.442.278 3.369.834a6.645 6.645 0 012.285 2.198c.586.918 1.011 1.972 1.275 3.164.264 1.191.395 2.427.395 3.706 0 1.28-.131 2.514-.395 3.706-.264 1.191-.684 2.241-1.26 3.15a6.7 6.7 0 01-2.27 2.197c-.928.547-2.061.82-3.399.82s-2.475-.273-3.413-.82a6.865 6.865 0 01-2.27-2.198c-.577-.908-.992-1.958-1.246-3.15a17.144 17.144 0 01-.395-3.705z" fill="#000"/></svg>